<svg xmlns="http://www.w3.org/2000/svg" viewBox="0 0 336 75.7">
	<style type="text/css">
		.st0{fill:#EAD100;}
		.st2{fill:#ffffff;}
	</style>
	<polygon class="st0" points="18.3,0 17.3,1.9 15.3,2.2 16.8,3.6 16.4,5.7 18.3,4.7 20.1,5.7 19.7,3.6 21.2,2.2 19.2,1.9 "/>
	<polygon class="st0" points="9.3,2.1 10.2,4 12.3,4.3 10.8,5.7 11.1,7.8 9.3,6.8 7.5,7.8 7.8,5.7 6.3,4.3 8.4,4 "/>
	<polygon class="st0" points="26.7,2.1 27.6,4 29.7,4.3 28.2,5.7 28.5,7.8 26.7,6.8 24.9,7.8 25.2,5.7 23.7,4.3 25.8,4 "/>
	<polygon class="st0" points="33.5,9 34.5,10.8 36.5,11.1 35,12.6 35.4,14.6 33.5,13.6 31.7,14.6 32.1,12.6 30.6,11.1 32.6,10.8 "/>
	<polygon class="st0" points="2.1,10.8 0,11.1 1.5,12.6 1.1,14.6 3,13.6 4.8,14.6 4.5,12.6 5.9,11.1 3.9,10.8 3,9 "/>
	<polygon class="st2" points="27.9,49.5 8.5,49.5 8.5,13.3 27.9,13.3 27.9,16.4 11.9,16.4 11.9,29.6 27.1,29.6 27.1,32.6 11.9,32.6 11.9,46.4 27.9,46.4 "/>
	<path class="st2" d="M36.7,50V23.1H47c2,0,3.6,0.7,4.9,2.1c1.3,1.4,1.9,3.1,1.9,5.1c0,2.5-1.1,3.8-3.4,4.9v0.7c3.2,1.2,4.9,2.9,4.9,6.1c0,2.4-0.7,4.7-2.2,6c-1.5,1.3-3.4,1.9-5.8,1.9H36.7z M40.3,26v8.1h5.6c1.5,0,2.7-0.4,3.6-1.1c0.9-0.8,1.4-1.3,1.4-2.7c0-1.3-0.4-2.3-1.3-3.1c-0.8-0.8-1.9-1.2-3.2-1.2H40.3z M40.3,37.5v9.1h6.4c3.5,0,4.8-1.6,4.8-4.8c0-1.6,0-2.3-1.1-3.1c-1-0.8-2.4-1.2-4-1.2H40.3z"/>
	<path class="st2" d="M66.5,23.1v5.1c2.9-3.8,6.5-5.8,10.8-5.8c3.8,0,7,1.4,9.6,4.1c2.5,2.7,3.8,6.1,3.8,9.9c0,4-1.3,7.4-4,10.1c-2.7,2.7-6,4.1-10,4.1c-4.1,0-7.5-1.8-10.2-5.3v13.2h-3.7V23.1H66.5z M87.4,36.4c0-3-1-5.5-3.1-7.7c-2-2.1-4.6-3.2-7.5-3.2c-3,0-5.5,1.1-7.5,3.4c-2,2.3-3,4.9-3,7.9c0,2.8,1,5.3,3.1,7.5c2.1,2.2,4.5,2.8,7.3,2.8c3,0,5.5-0.6,7.6-2.8C86.4,42,87.4,39.4,87.4,36.4"/>
	<path class="st2" d="M98.1,36c0-3.9,1.3-7.2,4-10c2.7-2.7,5.9-4.1,9.9-4.1c3.9,0,7.2,1.4,9.9,4.1c2.6,2.7,4,6.1,4,10c0,3.9-1.3,7.3-4,10c-2.6,2.7-5.9,4.1-9.9,4.1c-3.9,0-7.2-1.4-9.9-4.1C99.5,43.2,98.1,39.9,98.1,36 M101.4,36c0,3.2,1,5.8,2.9,7.9c2,2.1,4.5,3.1,7.6,3.1c3.2,0,5.3-1,7.2-3c1.9-2,2.9-4.7,2.9-7.9c0-3.3-0.9-5.5-2.8-7.5c-1.9-2-4-3-7.3-3c-3.2,0-5.8,1-7.7,3C102.3,30.6,101.4,32.8,101.4,36"/>
	<polygon class="st2" points="154.7,49.5 151.5,49.5 138.1,17.5 137.8,17.5 138,19.7 138,49.5 134.5,49.5 134.5,13.3 139.9,13.3 153,44.4 153.2,44.4 166.2,13.3 171.6,13.3 171.6,49.5 168.2,49.5 168.2,19.7 168.4,17.5 168.1,17.5 	"/>
	<path class="st2" d="M208,37.4h-24.2c0,3.1,1,5.1,2.9,6.9c1.9,1.8,4.4,2.7,7.6,2.7c4.4,0,7.5-2.7,9.2-5.9h3.7c-2.8,5.3-7.1,9-12.8,9c-4.2,0-7.6-1.3-10.1-3.9c-2.6-2.6-3.8-5.5-3.8-9.7c0-4.1,1.3-7.5,4-10.1c2.7-2.6,6-3.9,10.2-3.9c4.2,0,7.5,1.5,10,4.4C206.9,29.6,208,33.1,208,37.4 M204.2,34.2c-1.3-6.1-4.3-8.6-10.1-8.6c-2.8,0-5,0.8-6.8,2.5c-1.8,1.7-2.9,3.4-3.3,6.1H204.2z"/>
	<path class="st2" d="M243.5,56.1h-3.9v-6.6h-22.4v6.6h-3.9v-9.5h3.1l10.1-23.4h3.8l10.7,23.4h2.6V56.1z M237.1,46.5L228.4,28h-0.2l-8.7,18.5H237.1z"/>
	<polygon class="st2" points="253.7,44.6 268.8,23.1 273.1,23.1 273.1,50 269.3,50 269.3,28.5 254.2,50 249.9,50 249.9,23.1 253.7,23.1"/>
	<path class="st2" d="M285.5,49.5h-3.6V23.1h3.6V49.5z M298.6,49.5l-11-13l10.3-13.3h3.9l-9.3,13.2l10.2,13.1H298.6z"/>
	<path class="st2" d="M332.8,22.6h3.2v26.9h-3.2V45c-2.6,3.5-6.1,5.2-10.5,5.2c-3.9,0-7.2-1.3-9.8-4c-2.6-2.7-4.4-6-4.4-10c0-4,1.9-7.4,4.5-10.1c2.7-2.7,6-4.1,10-4.1c4.4,0,7.8,1.9,10.2,5.8V22.6z M332.8,35.9c0-2.9-1-5.4-3-7.6c-2-2.2-4.4-2.8-7.3-2.8c-3,0-5.5,0.6-7.5,2.8c-2,2.2-3,4.9-3,8c0,2.9,1,5.5,3,7.6c2,2.2,4.5,3.2,7.4,3.2c2.1,0,4-0.6,5.7-1.9c1.7-1.3,3-2.9,3.9-4.8C332.5,39.1,332.8,37.6,332.8,35.9"/>
	<path class="st2" d="M38.6,72.5V61.6h2.2l2.6,7.7c0.2,0.7,0.4,1.3,0.5,1.6c0.1-0.4,0.3-1,0.6-1.7l2.6-7.5H49v10.8h-1.4v-9.1l-3.2,9.1h-1.3L40,63.2v9.2H38.6z"/>
	<path class="st2" d="M57.1,69.9l1.4,0.2c-0.2,0.8-0.6,1.4-1.2,1.9c-0.6,0.4-1.3,0.7-2.2,0.7c-1.1,0-2.1-0.4-2.7-1.1c-0.7-0.7-1-1.7-1-3c0-1.3,0.3-2.3,1-3.1s1.6-1.1,2.6-1.1c1.1,0,1.9,0.4,2.6,1.1c0.7,0.7,1,1.7,1,3c0,0.1,0,0.2,0,0.4h-5.9c0,0.9,0.3,1.5,0.7,2c0.4,0.5,1,0.7,1.6,0.7c0.5,0,0.9-0.1,1.3-0.4C56.6,70.9,56.9,70.5,57.1,69.9 M52.7,67.8h4.4c-0.1-0.7-0.2-1.2-0.5-1.5c-0.4-0.5-1-0.8-1.7-0.8c-0.6,0-1.1,0.2-1.5,0.6C53,66.6,52.8,67.1,52.7,67.8"/>
	<path class="st2" d="M62,64.6h5.5v6.8h0.9v3.3h-1.1v-2.2H61v2.2h-1.1v-3.3h0.7C61.6,70.1,62,67.8,62,64.6 M63.1,65.7c-0.1,2.6-0.5,4.4-1.2,5.7h4.2v-5.7H63.1z"/>
	<polygon class="st2" points="70.4,64.6 71.7,64.6 71.7,70.6 75.4,64.6 76.9,64.6 76.9,72.5 75.5,72.5 75.5,66.5 71.8,72.5 70.4,72.5"/>
	<polygon class="st2" points="79.5,64.6 80.9,64.6 80.9,71.4 84.6,71.4 84.6,64.6 85.9,64.6 85.9,71.4 86.8,71.4 86.8,74.7 85.7,74.7 85.7,72.5 79.5,72.5"/>
	<polygon class="st2" points="88.9,64.6 90.2,64.6 90.2,70.6 93.9,64.6 95.3,64.6 95.3,72.5 94,72.5 94,66.5 90.3,72.5 88.9,72.5"/>
	<polygon class="st2" points="98,64.6 99.3,64.6 99.3,67.9 103,67.9 103,64.6 104.3,64.6 104.3,72.5 103,72.5 103,69 99.3,69 99.3,72.5 98,72.5"/>
	<path class="st2" d="M112.2,71.5c-0.5,0.4-1,0.7-1.4,0.9c-0.5,0.2-0.9,0.3-1.5,0.3c-0.9,0-1.5-0.2-2-0.6c-0.5-0.4-0.7-1-0.7-1.6c0-0.4,0.1-0.7,0.3-1.1c0.2-0.3,0.4-0.6,0.7-0.8c0.3-0.2,0.6-0.3,1-0.4c0.3-0.1,0.7-0.1,1.2-0.2c1.1-0.1,1.9-0.3,2.4-0.5c0-0.2,0-0.3,0-0.3c0-0.5-0.1-0.9-0.4-1.1c-0.3-0.3-0.8-0.5-1.5-0.5c-0.6,0-1.1,0.1-1.4,0.3c-0.3,0.2-0.5,0.6-0.7,1.2l-1.3-0.2c0.1-0.6,0.3-1,0.6-1.4c0.3-0.3,0.7-0.6,1.2-0.8s1.1-0.3,1.8-0.3c0.7,0,1.2,0.1,1.6,0.2c0.4,0.2,0.7,0.4,0.9,0.6c0.2,0.2,0.3,0.5,0.4,0.9c0,0.2,0.1,0.6,0.1,1.2v1.8c0,1.2,0,2,0.1,2.3c0.1,0.3,0.2,0.6,0.3,0.9h-1.4C112.3,72.2,112.2,71.9,112.2,71.5 M112.1,68.5c-0.5,0.2-1.2,0.4-2.2,0.5c-0.5,0.1-0.9,0.2-1.2,0.3c-0.2,0.1-0.4,0.2-0.5,0.4c-0.1,0.2-0.2,0.4-0.2,0.6c0,0.4,0.1,0.7,0.4,0.9c0.3,0.2,0.7,0.4,1.2,0.4c0.5,0,1-0.1,1.4-0.3c0.4-0.2,0.7-0.5,0.9-0.9c0.1-0.3,0.2-0.7,0.2-1.3V68.5z"/>
	<path class="st2" d="M126.4,69.9l1.4,0.2c-0.2,0.8-0.6,1.4-1.2,1.9c-0.6,0.4-1.3,0.7-2.2,0.7c-1.1,0-2.1-0.4-2.7-1.1c-0.7-0.7-1-1.7-1-3c0-1.3,0.3-2.3,1-3.1c0.7-0.7,1.6-1.1,2.6-1.1c1.1,0,1.9,0.4,2.6,1.1c0.7,0.7,1,1.7,1,3c0,0.1,0,0.2,0,0.4h-5.9c0,0.9,0.3,1.5,0.7,2c0.4,0.5,1,0.7,1.6,0.7c0.5,0,0.9-0.1,1.3-0.4C125.9,70.9,126.2,70.5,126.4,69.9 M122,67.8h4.4c-0.1-0.7-0.2-1.2-0.5-1.5c-0.4-0.5-1-0.8-1.7-0.8c-0.6,0-1.1,0.2-1.5,0.6C122.3,66.6,122.1,67.1,122,67.8"/>
	<path class="st2" d="M130.1,64.6h3.1c0.8,0,1.3,0.1,1.7,0.2c0.4,0.1,0.7,0.4,0.9,0.7s0.4,0.7,0.4,1.2c0,0.4-0.1,0.7-0.2,1c-0.2,0.3-0.4,0.5-0.7,0.7c0.4,0.1,0.7,0.4,0.9,0.7c0.2,0.3,0.4,0.7,0.4,1.2c0,0.7-0.3,1.3-0.8,1.7c-0.5,0.4-1.2,0.5-2.1,0.5h-3.5V64.6z M131.4,67.9h1.4c0.6,0,1,0,1.2-0.1c0.2-0.1,0.4-0.2,0.6-0.4c0.2-0.2,0.3-0.4,0.3-0.6c0-0.4-0.1-0.7-0.4-0.9c-0.3-0.2-0.8-0.2-1.5-0.2h-1.5V67.9z M131.4,71.4h1.8c0.8,0,1.3-0.1,1.6-0.3c0.3-0.2,0.4-0.5,0.4-0.9c0-0.3-0.1-0.5-0.2-0.7c-0.2-0.2-0.4-0.3-0.6-0.4s-0.7-0.1-1.3-0.1h-1.6V71.4z"/>
	<path class="st2" d="M138.8,75.5V64.6h1.2v1c0.3-0.4,0.6-0.7,1-0.9c0.4-0.2,0.8-0.3,1.3-0.3c0.7,0,1.3,0.2,1.8,0.5c0.5,0.3,0.9,0.8,1.2,1.5c0.3,0.6,0.4,1.3,0.4,2.1c0,0.8-0.1,1.5-0.4,2.2c-0.3,0.6-0.7,1.1-1.3,1.5c-0.6,0.3-1.1,0.5-1.7,0.5c-0.4,0-0.8-0.1-1.2-0.3c-0.4-0.2-0.6-0.4-0.9-0.7v3.8H138.8z M140,68.6c0,1,0.2,1.8,0.6,2.2c0.4,0.5,0.9,0.7,1.5,0.7c0.6,0,1.1-0.3,1.5-0.8c0.4-0.5,0.6-1.3,0.6-2.3c0-1-0.2-1.8-0.6-2.2c-0.4-0.5-0.9-0.7-1.5-0.7c-0.6,0-1.1,0.3-1.5,0.8C140.3,66.8,140,67.6,140,68.6"/>
	<path class="st2" d="M147.5,68.5c0-1.5,0.4-2.5,1.2-3.2c0.7-0.6,1.5-0.9,2.5-0.9c1.1,0,2,0.4,2.6,1.1c0.7,0.7,1,1.7,1,2.9c0,1-0.2,1.8-0.5,2.4c-0.3,0.6-0.7,1-1.3,1.4c-0.6,0.3-1.2,0.5-1.9,0.5c-1.1,0-2-0.4-2.7-1.1C147.8,70.9,147.5,69.9,147.5,68.5 M148.9,68.5c0,1,0.2,1.8,0.7,2.3c0.4,0.5,1,0.8,1.7,0.8c0.7,0,1.2-0.3,1.7-0.8c0.4-0.5,0.7-1.3,0.7-2.3c0-1-0.2-1.7-0.7-2.2c-0.4-0.5-1-0.8-1.6-0.8c-0.7,0-1.2,0.2-1.7,0.7C149.1,66.8,148.9,67.5,148.9,68.5"/>
	<polygon class="st2" points="157.2,64.6 163.4,64.6 163.4,72.5 162,72.5 162,65.7 158.5,65.7 158.5,72.5 157.2,72.5 	"/>
	<path class="st2" d="M171.4,69.9l1.4,0.2c-0.2,0.8-0.6,1.4-1.2,1.9c-0.6,0.4-1.3,0.7-2.2,0.7c-1.1,0-2.1-0.4-2.7-1.1c-0.7-0.7-1-1.7-1-3c0-1.3,0.3-2.3,1-3.1s1.6-1.1,2.6-1.1c1.1,0,1.9,0.4,2.6,1.1c0.7,0.7,1,1.7,1,3c0,0.1,0,0.2,0,0.4H167c0,0.9,0.3,1.5,0.7,2c0.4,0.5,1,0.7,1.6,0.7c0.5,0,0.9-0.1,1.3-0.4C171,70.9,171.2,70.5,171.4,69.9 M167.1,67.8h4.4c-0.1-0.7-0.2-1.2-0.5-1.5c-0.4-0.5-1-0.8-1.7-0.8c-0.6,0-1.1,0.2-1.5,0.6C167.3,66.6,167.1,67.1,167.1,67.8"/>
	<path class="st2" d="M175.1,64.6h1.3v6l3.7-6h1.4v7.9h-1.3v-6l-3.7,6h-1.4V64.6z M179.8,61.6h0.9c-0.1,0.6-0.3,1.1-0.7,1.4c-0.4,0.3-0.9,0.5-1.5,0.5c-0.6,0-1.1-0.2-1.5-0.5c-0.4-0.3-0.6-0.8-0.7-1.4h0.9c0.1,0.3,0.2,0.6,0.4,0.8c0.2,0.2,0.5,0.2,0.8,0.2c0.4,0,0.7-0.1,0.9-0.2C179.6,62.2,179.7,62,179.8,61.6"/>
	<path class="st2" d="M189.4,69.6l1.3,0.2c-0.1,0.9-0.5,1.6-1.1,2.1c-0.6,0.5-1.3,0.8-2.2,0.8c-1.1,0-1.9-0.4-2.6-1.1c-0.7-0.7-1-1.7-1-3c0-0.8,0.1-1.6,0.4-2.2c0.3-0.6,0.7-1.1,1.3-1.4c0.6-0.3,1.2-0.5,1.9-0.5c0.9,0,1.6,0.2,2.1,0.6c0.5,0.4,0.9,1,1,1.8l-1.3,0.2c-0.1-0.5-0.3-0.9-0.7-1.2c-0.3-0.3-0.7-0.4-1.1-0.4c-0.7,0-1.2,0.2-1.6,0.7c-0.4,0.5-0.6,1.2-0.6,2.3c0,1.1,0.2,1.8,0.6,2.3c0.4,0.5,0.9,0.7,1.6,0.7c0.5,0,1-0.2,1.3-0.5C189.1,70.8,189.3,70.3,189.4,69.6"/>
	<path class="st2" d="M192.7,64.6h1.3V68c0.4,0,0.7-0.1,0.9-0.2c0.2-0.2,0.4-0.6,0.8-1.4c0.3-0.6,0.5-1,0.6-1.2c0.2-0.2,0.4-0.3,0.6-0.4c0.2-0.1,0.6-0.1,1-0.1h0.3v1.1l-0.4,0c-0.4,0-0.6,0.1-0.7,0.2c-0.1,0.1-0.3,0.4-0.5,1c-0.2,0.5-0.4,0.9-0.6,1.1c-0.2,0.2-0.4,0.4-0.8,0.5c0.6,0.2,1.1,0.7,1.7,1.6l1.5,2.4H197l-1.4-2.4c-0.3-0.5-0.5-0.8-0.8-1c-0.2-0.2-0.5-0.2-0.8-0.2v3.6h-1.3V64.6z"/>
	<path class="st2" d="M199.5,68.5c0-1.5,0.4-2.5,1.2-3.2c0.7-0.6,1.5-0.9,2.5-0.9c1.1,0,2,0.4,2.6,1.1c0.7,0.7,1,1.7,1,2.9c0,1-0.2,1.8-0.5,2.4c-0.3,0.6-0.7,1-1.3,1.4c-0.6,0.3-1.2,0.5-1.9,0.5c-1.1,0-2-0.4-2.7-1.1C199.8,70.9,199.5,69.9,199.5,68.5 M200.8,68.5c0,1,0.2,1.8,0.7,2.3c0.4,0.5,1,0.8,1.7,0.8c0.7,0,1.2-0.3,1.6-0.8s0.7-1.3,0.7-2.3c0-1-0.2-1.7-0.7-2.2c-0.4-0.5-1-0.8-1.6-0.8c-0.7,0-1.2,0.2-1.7,0.7C201,66.8,200.8,67.5,200.8,68.5"/>
	<polygon class="st2" points="209.1,64.6 213.6,64.6 213.6,65.7 210.4,65.7 210.4,72.5 209.1,72.5 	"/>
	<path class="st2" d="M214.8,68.5c0-1.5,0.4-2.5,1.2-3.2c0.7-0.6,1.5-0.9,2.5-0.9c1.1,0,2,0.4,2.6,1.1c0.7,0.7,1,1.7,1,2.9c0,1-0.2,1.8-0.5,2.4c-0.3,0.6-0.7,1-1.3,1.4c-0.6,0.3-1.2,0.5-1.9,0.5c-1.1,0-2-0.4-2.7-1.1C215.2,70.9,214.8,69.9,214.8,68.5 M216.2,68.5c0,1,0.2,1.8,0.7,2.3c0.4,0.5,1,0.8,1.7,0.8c0.7,0,1.2-0.3,1.6-0.8s0.7-1.3,0.7-2.3c0-1-0.2-1.7-0.7-2.2c-0.4-0.5-1-0.8-1.6-0.8c-0.7,0-1.2,0.2-1.7,0.7C216.4,66.8,216.2,67.5,216.2,68.5"/>
	<path class="st2" d="M229.2,75.5l-0.1-1.3c0.3,0.1,0.5,0.1,0.8,0.1c0.3,0,0.5,0,0.7-0.1c0.2-0.1,0.3-0.2,0.4-0.4c0.1-0.1,0.2-0.5,0.4-1c0-0.1,0.1-0.2,0.1-0.3l-3-7.9h1.4l1.6,4.6c0.2,0.6,0.4,1.2,0.6,1.8c0.2-0.6,0.3-1.2,0.5-1.8l1.7-4.6h1.3l-3,8c-0.3,0.9-0.6,1.5-0.7,1.8c-0.2,0.4-0.5,0.8-0.8,1c-0.3,0.2-0.7,0.3-1.1,0.3C229.8,75.7,229.6,75.6,229.2,75.5"/>
	<path class="st2" d="M237.6,75.5V64.6h1.2v1c0.3-0.4,0.6-0.7,1-0.9c0.4-0.2,0.8-0.3,1.3-0.3c0.7,0,1.3,0.2,1.8,0.5c0.5,0.3,0.9,0.8,1.2,1.5c0.3,0.6,0.4,1.3,0.4,2.1c0,0.8-0.1,1.5-0.4,2.2c-0.3,0.6-0.7,1.1-1.3,1.5c-0.6,0.3-1.1,0.5-1.7,0.5c-0.4,0-0.8-0.1-1.2-0.3c-0.4-0.2-0.6-0.4-0.9-0.7v3.8H237.6z M238.8,68.6c0,1,0.2,1.8,0.6,2.2c0.4,0.5,0.9,0.7,1.5,0.7c0.6,0,1.1-0.3,1.5-0.8c0.4-0.5,0.6-1.3,0.6-2.3c0-1-0.2-1.8-0.6-2.2c-0.4-0.5-0.9-0.7-1.5-0.7c-0.6,0-1.1,0.3-1.5,0.8C239,66.8,238.8,67.6,238.8,68.6"/>
	<path class="st2" d="M246.3,68.5c0-1.5,0.4-2.5,1.2-3.2c0.7-0.6,1.5-0.9,2.5-0.9c1.1,0,2,0.4,2.6,1.1c0.7,0.7,1,1.7,1,2.9c0,1-0.2,1.8-0.5,2.4c-0.3,0.6-0.7,1-1.3,1.4c-0.6,0.3-1.2,0.5-1.9,0.5c-1.1,0-2-0.4-2.7-1.1C246.6,70.9,246.3,69.9,246.3,68.5 M247.7,68.5c0,1,0.2,1.8,0.7,2.3c0.4,0.5,1,0.8,1.7,0.8c0.7,0,1.2-0.3,1.6-0.8s0.7-1.3,0.7-2.3c0-1-0.2-1.7-0.7-2.2c-0.4-0.5-1-0.8-1.6-0.8c-0.7,0-1.2,0.2-1.7,0.7C247.9,66.8,247.7,67.5,247.7,68.5"/>
	<path class="st2" d="M255.9,64.6h3.1c0.8,0,1.3,0.1,1.7,0.2s0.7,0.4,0.9,0.7c0.3,0.3,0.4,0.7,0.4,1.2c0,0.4-0.1,0.7-0.2,1c-0.2,0.3-0.4,0.5-0.7,0.7c0.4,0.1,0.7,0.4,0.9,0.7c0.2,0.3,0.4,0.7,0.4,1.2c0,0.7-0.3,1.3-0.8,1.7c-0.5,0.4-1.2,0.5-2.1,0.5h-3.5V64.6z M257.3,67.9h1.4c0.6,0,1,0,1.2-0.1c0.2-0.1,0.4-0.2,0.6-0.4c0.2-0.2,0.3-0.4,0.3-0.6c0-0.4-0.1-0.7-0.4-0.9c-0.3-0.2-0.8-0.2-1.5-0.2h-1.5V67.9z M257.3,71.4h1.8c0.8,0,1.3-0.1,1.6-0.3c0.3-0.2,0.4-0.5,0.4-0.9c0-0.3-0.1-0.5-0.2-0.7c-0.2-0.2-0.4-0.3-0.6-0.4c-0.3-0.1-0.7-0.1-1.3-0.1h-1.6V71.4z"/>
	<polygon class="st2" points="264.6,64.6 266,64.6 266,67.9 269.7,67.9 269.7,64.6 271,64.6 271,72.5 269.7,72.5 269.7,69 266,69 266,72.5 264.6,72.5"/>
	<path class="st2" d="M279.9,64.6v7.9h-1.3v-3.1h-0.8c-0.5,0-0.8,0.1-1,0.2c-0.2,0.1-0.6,0.5-1,1.2l-1.2,1.7h-1.7l1.4-2.1c0.4-0.6,0.9-1,1.3-1.1c-0.8-0.1-1.3-0.4-1.7-0.8c-0.4-0.4-0.6-1-0.6-1.5c0-0.7,0.2-1.2,0.7-1.7c0.5-0.4,1.2-0.6,2.1-0.6H279.9z M278.5,65.7h-1.9c-0.8,0-1.3,0.1-1.5,0.4c-0.2,0.2-0.3,0.5-0.3,0.9c0,0.5,0.2,0.8,0.5,1c0.3,0.2,0.9,0.3,1.8,0.3h1.5V65.7z"/>
	<path class="st2" d="M42.2,5.6h1.3V9c0.4,0,0.7-0.1,0.9-0.2c0.2-0.2,0.4-0.6,0.8-1.4c0.3-0.6,0.5-1,0.6-1.2c0.2-0.2,0.4-0.3,0.6-0.4c0.2-0.1,0.6-0.1,1-0.1h0.3v1.1l-0.4,0c-0.4,0-0.6,0.1-0.7,0.2c-0.1,0.1-0.3,0.4-0.5,1c-0.2,0.5-0.4,0.9-0.6,1.1c-0.2,0.2-0.4,0.4-0.8,0.5c0.6,0.2,1.1,0.7,1.7,1.6l1.5,2.4h-1.5L45,11c-0.3-0.5-0.5-0.8-0.8-1c-0.2-0.2-0.5-0.2-0.8-0.2v3.6h-1.3V5.6z"/>
	<path class="st2" d="M53,5.6h6.2v7.9h-1.3V6.7h-3.5v3.9c0,0.9,0,1.5-0.1,1.8c-0.1,0.3-0.2,0.5-0.5,0.8c-0.3,0.2-0.7,0.3-1.2,0.3c-0.3,0-0.7,0-1.1-0.1v-1.1h0.6c0.3,0,0.5,0,0.6-0.1c0.1-0.1,0.2-0.1,0.2-0.3c0-0.1,0.1-0.5,0.1-1.2V5.6z"/>
	<polygon class="st2" points="64.1,5.6 65.4,5.6 65.4,11.6 69.1,5.6 70.5,5.6 70.5,13.4 69.2,13.4 69.2,7.5 65.5,13.4 64.1,13.4"/>
	<polygon class="st2" points="75.4,5.6 76.7,5.6 76.7,8.9 80.4,8.9 80.4,5.6 81.8,5.6 81.8,13.4 80.4,13.4 80.4,10 76.7,10 76.7,13.4 75.4,13.4"/>
	<polygon class="st2" points="86.7,5.6 88,5.6 88,11.6 91.7,5.6 93.1,5.6 93.1,13.4 91.8,13.4 91.8,7.5 88.1,13.4 86.7,13.4"/>
	<path class="st2" d="M98,5.6h1.3V9c0.4,0,0.7-0.1,0.9-0.2c0.2-0.2,0.4-0.6,0.8-1.4c0.3-0.6,0.5-1,0.6-1.2c0.2-0.2,0.4-0.3,0.6-0.4c0.2-0.1,0.6-0.1,1-0.1h0.3v1.1l-0.4,0c-0.4,0-0.6,0.1-0.7,0.2c-0.1,0.1-0.3,0.4-0.5,1c-0.2,0.5-0.4,0.9-0.6,1.1c-0.2,0.2-0.4,0.4-0.8,0.5c0.6,0.2,1.1,0.7,1.7,1.6l1.5,2.4h-1.5l-1.4-2.4c-0.3-0.5-0.5-0.8-0.8-1c-0.2-0.2-0.5-0.2-0.8-0.2v3.6H98V5.6z"/>
	<path class="st2" d="M112.7,12.5c-0.5,0.4-1,0.7-1.4,0.9c-0.5,0.2-0.9,0.3-1.5,0.3c-0.9,0-1.5-0.2-2-0.6c-0.5-0.4-0.7-1-0.7-1.6c0-0.4,0.1-0.7,0.3-1.1c0.2-0.3,0.4-0.6,0.7-0.8c0.3-0.2,0.6-0.3,1-0.4c0.3-0.1,0.7-0.1,1.2-0.2c1.1-0.1,1.9-0.3,2.4-0.5c0-0.2,0-0.3,0-0.3c0-0.5-0.1-0.9-0.4-1.1c-0.3-0.3-0.8-0.5-1.5-0.5c-0.6,0-1.1,0.1-1.4,0.3c-0.3,0.2-0.5,0.6-0.7,1.2l-1.3-0.2c0.1-0.6,0.3-1,0.6-1.4c0.3-0.3,0.7-0.6,1.2-0.8c0.5-0.2,1.1-0.3,1.8-0.3c0.7,0,1.2,0.1,1.6,0.2c0.4,0.2,0.7,0.4,0.9,0.6c0.2,0.2,0.3,0.5,0.4,0.9c0,0.2,0.1,0.6,0.1,1.2v1.8c0,1.2,0,2,0.1,2.3c0.1,0.3,0.2,0.6,0.3,0.9H113C112.9,13.2,112.8,12.8,112.7,12.5 M112.6,9.5c-0.5,0.2-1.2,0.4-2.2,0.5c-0.5,0.1-0.9,0.2-1.2,0.3c-0.2,0.1-0.4,0.2-0.5,0.4c-0.1,0.2-0.2,0.4-0.2,0.6c0,0.4,0.1,0.7,0.4,0.9c0.3,0.2,0.7,0.4,1.2,0.4c0.5,0,1-0.1,1.4-0.3c0.4-0.2,0.7-0.5,0.9-0.9c0.1-0.3,0.2-0.7,0.2-1.3V9.5z"/>
</svg>
