<svg xmlns="http://www.w3.org/2000/svg" viewBox="0 0 150 125"><path d="M100.1 16.5c3.1-1.6 6.8-.6 8.7 2.3 1.2 1.8 3.1 2.9 5.3 3 3.4.2 6.2 2.9 6.3 6.3.1 2.1 1.2 4.1 3 5.3 2.9 1.9 3.9 5.6 2.3 8.7-1 1.9-1 4.2 0 6.1 1.6 3.1.6 6.8-2.3 8.7-1.8 1.2-2.9 3.1-3 5.3-.2 3.4-2.9 6.2-6.3 6.3-2.1.1-4.1 1.2-5.3 3-1.9 2.9-5.6 3.9-8.7 2.3-1.9-1-4.2-1-6.1 0-3.1 1.6-6.8.6-8.7-2.3-1.2-1.8-3.1-2.9-5.3-3-3.4-.2-6.2-2.9-6.3-6.3-.1-2.1-1.2-4.1-3-5.3-2.9-1.9-3.9-5.6-2.3-8.7 1-1.9 1-4.2 0-6.1-1.6-3.1-.6-6.8 2.3-8.7 1.8-1.2 2.9-3.1 3-5.3.2-3.4 2.9-6.2 6.3-6.3 2.1-.1 4.1-1.2 5.3-3 1.9-2.9 5.6-3.9 8.7-2.3 2 1 4.2 1 6.1 0z" fill="#82a7d1"/><path fill="#b5d277" d="M70.2 35.6l7.4-4.5 5.6 6.6 8.4-2 3.4 8 8.6.7.7 8.6 8 3.3-2 8.5 6.6 5.6-4.5 7.4 4.5 7.4-6.6 5.6 2 8.5-8 3.3-.7 8.6-8.6.7-3.4 8-8.4-2-5.6 6.6-7.4-4.5-7.4 4.5-5.7-6.6-8.4 2-3.3-8-8.6-.7-.8-8.6-7.9-3.3 1.9-8.5-6.5-5.6 4.5-7.4-4.5-7.4 6.5-5.6-1.9-8.5L36 53l.8-8.6 8.6-.7 3.3-8 8.4 2 5.7-6.6z"/><text transform="translate(44.668 100.563)" font-size="69.998" font-family="Calibri-Bold" fill="#fff">%</text></svg>