<svg version="1.1" id="Слой_1" xmlns="http://www.w3.org/2000/svg" xmlns:xlink="http://www.w3.org/1999/xlink" x="0" y="0" viewBox="0 0 154 29.8" xml:space="preserve"><style>.st0,.st2{clip-path:url(#SVGID_2_);fill:#696a6a}.st2{fill:#323232}</style><defs><path id="SVGID_1_" d="M0 0h154v29.8H0z"/></defs><clipPath id="SVGID_2_"><use xlink:href="#SVGID_1_" overflow="visible"/></clipPath><path class="st0" d="M16.3 9.2l-.5 1.5C11 7.7 4.6 9.2 1.6 14S.1 25.2 4.9 28.2c3.3 2.1 7.6 2.1 10.9 0l.5 1.5h5.9V9.2h-5.9zm-5.5 15.3c-2.8 0-5-2.2-5-5s2.2-5 5-5c2.7 0 5 2.2 5 5 0 2.7-2.2 5-5 5M44.3 9.2h-18l-.5 5.5h8.7l-9.2 15.1h18.8l-.6-5.4h-8.4zm89.9 0l-.5 1.5c-4.8-3-11.2-1.5-14.2 3.3s-1.5 11.2 3.3 14.2c3.3 2.1 7.6 2.1 10.9 0l.5 1.5h6V9.2h-6zm-5.4 15.3c-2.8 0-5-2.2-5-5s2.2-5 5-5 5 2.2 5 5c0 2.7-2.3 5-5 5M59.6 9.2c-1.9 0-3.8.5-5.4 1.5V0h-6.4v29.8h5.9l.5-1.5c4.8 3 11.2 1.5 14.2-3.3s1.5-11.2-3.3-14.2c-1.7-1.1-3.6-1.6-5.5-1.6M59 24.5c-2.8 0-5-2.2-5-5s2.2-5 5-5 5 2.2 5 5c0 2.7-2.2 5-5 5"/><path class="st0" d="M118.2 29.8L110.6 19l6.8-9.8h-7l-6 9V0h-6.5v29.8h6.5v-9l6.5 9z"/><path d="M149.9 21.7c2.2 0 4.1 1.8 4.1 4s-1.8 4.1-4.1 4.1c-2.2 0-4.1-1.8-4.1-4.1.1-2.2 1.9-4 4.1-4" clip-path="url(#SVGID_2_)" fill="#94cebd"/><path class="st2" d="M87.3 19.6v-6.2 6.2z"/><path class="st0" d="M93.8 9.2h-6.6v11.5c0 2.1-1.7 3.8-3.8 3.8-2.1 0-3.8-1.7-3.8-3.8V9.2h-6.5v11.7c0 2.9.3 5 1.6 6.5 1.1 1.4 3.1 2.3 5.8 2.3 3.2 0 5.1-.4 6.7-1.9l.5 1.9h6l.1-20.5z"/><path class="st2" d="M87.3 13.3V9.2v4.1z"/></svg>