<svg version="1.1" id="Слой_1" xmlns="http://www.w3.org/2000/svg" x="0" y="0" viewBox="0 0 150 125" xml:space="preserve"><style>.st0{fill:#82a7d1}.st0,.st1,.st2{fill-rule:evenodd;clip-rule:evenodd}.st1{fill:#b5d277}.st2{fill:#fff}</style><path class="st0" d="M48.4 101.3c1.1 1.7 3 2.2 5 2.5-9.1 6.1-14.6 5.8-16 21.2H112c-1.4-15.1-6.9-15.7-16.3-20.9l-.3-.3c2.5.3 4.7-.8 6.3-2.5-5.5.3-8.3-3.6-9.4-8.3-.8-5.2-1.1-10.5-1.4-14-.6 1.1-1.7 1.7-2.5 1.4-1.4 5.8-6.6 11-6.6 11 0 1.7 1.4 5 1.7 6.1-.5 1.1-1.4 2.2-1.9 3-4.4 3.9-12.4 3.6-16-2.8.8-1.7 1.7-4.4 1.7-6.3 0 0-5.2-4.4-6.6-11-.8 0-1.7-.6-2.5-1.7 0 3.6 0 8.8-.8 14-.7 5-3.2 8.9-9 8.6z"/><path class="st1" d="M90.6 70.5V53.7s-16-12.9-31.9 0v16.8s5.2-5.2 16-5.5c10.6 0 15.9 5.5 15.9 5.5z"/><path class="st2" d="M73.2 61.4H76v-3.3h3.3v-2.5H76v-3.3h-2.8v3.3h-3v2.5h3z"/><path class="st0" d="M103.8 92.5c-2.8 1.9-5.2 3-7.2 4.4 1.1 1.4 2.8 2.2 5 2.2h5.2l-3.3 3.8c-.5.6-1.4 1.1-1.9 1.4 2.5 1.4 4.7 2.8 6.6 4.4.6.6.8.8 1.1 1.4h40.2c-.8-12.1-5.5-12.4-12.9-16.8-2.5-5.2-3.6-15.4-3.9-20.7-.5.8-1.1 2.8-1.9 2.8-1.4 4.4-5 8-5 8-.3 1.4.8 3.9 1.1 5-.5.8-1.1 1.7-1.6 2.2-3.6 3-9.6 3-12.7-2.2.5-1.4 1.4-3.6 1.4-5 0 0-3.9-3.3-5-8-.8 0-1.4-1.7-1.9-2.8 0 5.3-.8 14.7-3.3 19.9z"/><path class="st1" d="M132.7 66.6V53.1s-12.9-10.2-25.6 0v13.5s4.1-4.1 12.7-4.4c8.5 0 12.9 4.4 12.9 4.4z"/><path class="st2" d="M118.7 59.5h2.2v-2.8h2.7v-1.9h-2.7V52h-2.2v2.8h-2.5v1.9h2.5z"/><path class="st0" d="M107.4 68.8l15.7-.3.5-5c-1.4-.3-2.5-.5-3.9-.5-3.3.3-6.3.8-9.1 2.2-1.1.6-2.2 1.4-3 1.9l-.6.6c.4.9.4 1.1.4 1.1zm16.5-5.2l.5 5h1.1l.5-4.4c-.7-.3-1.3-.6-2.1-.6zm2.5.5l.3 4.4h1.9V65c-.6-.3-1.4-.6-2.2-.9zm2.4 1.1l.3 3.3h3.3c.3 0 .3-.3.3-.5l-.8-.8c-.6-.9-2-1.4-3.1-2zM21.7 90.6c-.6.3-1.4.6-1.9.8v3.3c4.1.6 7.4 3.9 7.4 8v7.4c0 .5-.3.8-.8.8h-2.5c-.6 0-.8-.3-.8-.8 0-.6.3-.8.8-.8h1.7v-6.6c0-3.3-2.8-6.3-6.3-6.3-3.6 0-6.3 3-6.3 6.3v6.6h1.9c.6 0 .8.3.8.8s-.3.8-.8.8h-2.7c-.6 0-.8-.3-.8-.8v-7.4c0-3.9 3-7.4 6.9-8v-2.2C6.5 97.7.7 95.5.7 113.2h36.1c.8-1.9 2.2-4.1 3.9-5.8 1.9-1.7 4.4-3 6.9-4.4-.6-.3-1.1-.8-1.7-1.4l-3.3-3.9h5c1.7 0 3.3-.6 4.4-1.4-2.5-1.1-5.8-2.2-9.6-3.9v6.1c1.4.3 2.2 1.4 2.2 2.8 0 1.9-1.4 3.3-3 3.3-1.7 0-3.3-1.4-3.3-3.3 0-1.4 1.1-2.8 2.5-3v-6.6c-.6-.3-1.1-.5-1.7-1.1-3.4 9.9-14.4 11-17.4 0z"/><path class="st0" d="M41.3 103c-.8 0-1.7-.8-1.7-1.7s.8-1.4 1.7-1.4c.8 0 1.4.5 1.4 1.4s-.6 1.7-1.4 1.7zM41 68.3s-1.1-2.5-1.1-4.1c0 0-9.4 5.5-13 5.5 0 0 6.3-3 7.4-5.2-3 1.9-9.6 5.2-11.8 5.2 0 0 3-1.7 3.3-3C19 68.3 19.2 73.8 19 79c0 0-1.1-6.1-1.7-7.4C14.3 62 21.4 54 30.8 54c11.6-.3 17.1 8 12.9 18.5-.6 1.7-2.2 8-2.2 8 0-4.2.9-8.4-.5-12.2z"/><path class="st1" d="M30 74.1h1.9V73c.3-.3.3-.3.5-.3h7.7s.3 0 .3.3l.3.3c-.3 1.1-.6 4.1-1.7 5-.8.6-2.2.8-2.8.8-.8 0-2.2-.3-3-.8-.6-.6-1.1-1.9-1.4-3.3H30c-.3 1.4-.8 2.8-1.4 3.3-.8.6-2.2.8-3 .8-.6 0-1.9-.3-2.8-.8-1.1-.8-1.4-3.9-1.7-5l.3-.3c0-.3.3-.3.6-.3h7.4c.3 0 .3 0 .6.3l.3.3c-.3.2-.3.5-.3.8zm9.3-.3c-.3 1.7-.6 3.3-1.1 3.6-.3.3-1.1.3-1.9.3-1.1 0-1.9 0-2.2-.3-.5-.3-.8-1.9-1.1-3.6h6.3zm-10.4 0c-.3 1.7-.6 3.3-1.1 3.6-.3.3-1.1.3-2.2.3-.8 0-1.7 0-1.9-.3-.6-.3-.8-1.9-1.1-3.6h6.3z"/></svg>