<svg xmlns="http://www.w3.org/2000/svg" viewBox="0 0 40 40"><path d="M20 0c5.5 0 10.5 2.2 14.1 5.9C37.8 9.5 40 14.5 40 20s-2.2 10.5-5.9 14.1C30.5 37.8 25.5 40 20 40S9.5 37.8 5.9 34.1C2.2 30.5 0 25.5 0 20S2.2 9.5 5.9 5.9C9.5 2.2 14.5 0 20 0m13 7c-3.3-3.3-8-5.4-13-5.4S10.3 3.6 7 7c-3.3 3.3-5.4 7.9-5.4 13S3.7 29.7 7 33c3.3 3.3 7.9 5.4 13 5.4s9.7-2.1 13-5.4c3.3-3.3 5.4-8 5.4-13 0-5.1-2-9.7-5.4-13"/><path d="M21.5 15.9v-1.6c0-.8.5-1 .9-1h2.3V9.8h-3.2c-3.5 0-4.3 2.6-4.3 4.3v1.8h-2V20h2.1v10.2h4.1V20h3l.1-1.6.2-2.5h-3.2z"/></svg>