<svg xmlns="http://www.w3.org/2000/svg" viewBox="0 0 90 80.7"><style>.st0{fill:#6cacdc}.st1{fill:#acdc6c}</style><path class="st0" d="M34.5 9.7h-4.9V5.2c.7-.1 1.5-.1 2.2-.3 2.3-.4 3.7-1.8 4.4-4 .3-.8.7-1 1.4-1 1 .1 2.1 0 3.2 0v37.3h-6.3V9.7zm17.3 0h-4.9V5.2c.7-.1 1.5-.1 2.2-.3 2.3-.4 3.7-1.8 4.4-4 .3-.8.7-1 1.4-1 1 .1 2.1 0 3.2 0v37.3h-6.3V9.7z"/><path class="st1" d="M90 66.9c-.6 1.6-1 3.1-1.7 4.4-.9 1.6-.7 3.1 0 4.7.7 1.5 1.1 3 1.7 4.6-8.7-.5-17.2-1-25.7-1.5v-.2c2.2-.9 4.5-1.7 6.7-2.6l7.8-3c.5-.2.7-.4.7-1v-6.1c3.4.2 6.9.4 10.5.7zm-79.3-.7v5.9c0 .8.2 1.1.9 1.4l13.5 5.1c.2.1.5.2.7.5-8.5.5-17 1-25.7 1.5.7-1.9 1.3-3.8 2-5.5.4-1.1.4-2-.1-3.1-.7-1.6-1.3-3.3-2-5.1 3.6-.3 7-.5 10.7-.7z"/><path class="st1" d="M13.4 73.2H28V79c-4.9-1.9-9.8-3.8-14.6-5.6v-.2zM61.9 79v-5.8h14.6v.1c-4.8 1.9-9.6 3.7-14.6 5.7zM11.5 58.4h67v13.8h-67z"/><path class="st0" d="M35.7 54.6l-.1-1.7 1.2-.1v-6.9h-2.3c0 6.4-1.7 9-4 9-.9 0-1.2-.3-1.2-.3l.1-2s.2.1.6.1c1.3 0 2.1-1.5 2.3-6.8l-1.5-.1.1-1.7h9.6v1.7l-1.2.1v7l1.2.1-.1 1.7h-4.7zm12.6-7.7l-.1-1h-2.9v2.5h4.2v1.8h-4.2v2.6h3.2l.2-1.2 1.8.1-.1 2.9h-8.7l-.1-1.7 1.2-.1v-7.1l-1.2-.1.1-1.6h6.4l2.1-.1v3h-1.9zm2.8.3l.1-3.3 2.1.1h5.5l2.1-.1v3.3h-1.8l-.1-1.3h-1.7v6.9l1.2.1-.1 1.7h-4.7l-.1-1.7 1.2-.1v-6.9H53l-.2 1.3h-1.7z"/><path d="M21.6 68.2l-.1-.8h.6V64h-.6l.1-.8h1.6v2.1h2.4v-1.4h-.5v-.7h2.1v.8h-.5v3.5h.6l-.1.8h-1.7V66h-2.4v1.6h.5l-.1.7h-1.9zm7-3.5V63h.7l.1.3c.3-.2.8-.4 1.3-.4 1.1 0 1.8.6 1.8 1.9v2.6h.6l-.1.8h-1.5l-.2-.6c-.1.1-.5.8-1.6.8-1.2 0-1.8-.6-1.8-1.5 0-1.5 2.1-1.6 3.4-1.7v-.3c0-.8-.3-1.2-1-1.2-.5 0-.8.2-1 .3l-.1.6h-.6zm2.9 2.2v-1.1c-1.2.1-2.2.2-2.2.9 0 .6.3.8 1 .8.8.1 1.1-.5 1.2-.6zm5.1 3.9l-.1-.8h.6v-6h-.6l.1-.8h1.5l.1.5c.1-.1.6-.6 1.7-.6 1.4 0 2.3.9 2.3 2.5 0 1.7-.9 3-2.4 3-1.1 0-1.5-.4-1.5-.4v2h.6l-.1.8h-2.2zm1.7-6.4v2.7c.1.1.4.4 1.2.4 1.2 0 1.6-.8 1.6-2.1s-.5-1.7-1.5-1.7c-.9.1-1.3.6-1.3.7zm4.6 3h.6V64h-.6l.1-.8h1.6V65h.8c1.4 0 2.4.3 2.4 1.5s-.9 1.8-2.4 1.8h-2.5v-.9zm1.7-1.8v1.9h.8c.8 0 1.3-.3 1.3-1s-.6-.8-1.3-.8h-.8zm4.2 2.6v-4.4h-.5l.1-.7h2.1v.8H50v3.5h.6l-.1.8h-1.7zm2.5 0l-.1-.8h.6V64h-.6l.1-.8h1.6v2.1h2.4v-1.4h-.5v-.7H57v.8h-.5v3.5h.6l-.1.7h-1.7V66h-2.4v1.6h.5l-.1.7h-2zm6.5 0l-.1-.8h.6V64h-.7l.1-.8h1.7v2.2l.7-.3.8-1.1h-.2l.1-.7h2.1v.8l-1-.1-1 1.3 1.4 2h1l-.1.9h-1.5l-.4-.4-1.4-2-.4.2v1.4h.5l-.1.7h-2.1zm6.9-2.3c.1 1.1.7 1.6 1.6 1.6.9 0 1.4-.6 1.4-.6l.5.6s-.6.9-2 .9c-1.7 0-2.7-.9-2.7-2.7 0-1.8 1-2.7 2.5-2.7 1.4 0 2.2.8 2.2 2.3 0 .4-.2.8-.2.8h-3.3zm0-.7h2.6V65c0-.8-.4-1.2-1.2-1.2-.9-.1-1.3.4-1.4 1.4z" fill="#fff"/></svg>