<svg xmlns="http://www.w3.org/2000/svg" viewBox="0 0 52.7 52.7"><g fill-rule="evenodd" clip-rule="evenodd"><path fill="#acdc6c" d="M10.4 22.3v8.1h12v11.8h7.9V30.4h11.9v-8.1H30.3V10.4h-7.9v11.9z"/><path d="M26.3 3.5c6.3 0 12 2.5 16.2 6.7 4.2 4.1 6.7 9.7 6.7 16.1 0 6.3-2.5 12-6.7 16.2-4.1 4.1-9.8 6.7-16.2 6.7-6.2 0-11.9-2.6-16.1-6.7-4.2-4.2-6.7-9.9-6.7-16.2 0-6.3 2.5-11.9 6.7-16.1 4.1-4.2 9.9-6.7 16.1-6.7zm18.6 4.2C40.1 3 33.6 0 26.3 0 19 0 12.5 3 7.7 7.7A26.3 26.3 0 0 0 0 26.3c0 7.3 3 13.9 7.7 18.6 4.8 4.8 11.3 7.7 18.5 7.7 7.4 0 13.9-3 18.6-7.7 4.8-4.8 7.7-11.4 7.7-18.6.2-7.3-2.8-13.9-7.6-18.6z" fill="#6cacdc"/></g></svg>