<svg xmlns="http://www.w3.org/2000/svg" viewBox="0 0 44.4 38.5"><style>.st1{fill:#acdc6c}</style><path d="M28.5 37.2c-.9-.6-1-1.7-1-1.7l-.3-2.3h-10l-.3 2.3s-.1 1.1-1 1.6c-.9.7-1.5 1.2-.9 1.2.7.1 6.7.1 7.1.1.5 0 6.5.1 7.1 0 .7-.1.1-.5-.7-1.2zM42.5 0H2C1 0 0 .8 0 1.8v28c0 1.1 1 1.3 2 1.3h40.4c1.1 0 1.9-.3 1.9-1.3v-28c.1-1-.8-1.8-1.8-1.8zm-1.1 26.2H3.1V3h38.3v23.2z" fill-rule="evenodd" clip-rule="evenodd" fill="#6cacdc"/><path class="st1" d="M16.1 13.6l1.3-4.8h1.1l2.3 8.4.9-3.1.5-.4h2.2l1.3-4.8h1.1l1.3 4.8h3.8c.3-.9.4-1.7.4-2.7 0-3.4-2.7-6.2-5.9-6.2-1.7 0-3.3.8-4.4 2-1.1-1.2-2.7-2-4.4-2-3.3 0-6 2.8-6 6.2 0 .9.2 1.8.4 2.7h4.1z"/><path class="st1" d="M27.6 14.8h3.8c-2.5 5.4-9.4 8.9-9.4 8.9s-6.9-3.5-9.4-8.9h4l.6-.4.9-3.1 2.3 8.4h1.1l1.3-4.8h2.1l.6-.4.8-3.1.9 3.1.4.3z"/></svg>