<svg xmlns="http://www.w3.org/2000/svg" viewBox="0 0 124.3 99.6"><style>.st0{fill:#6cacdc}</style><path class="st0" d="M95.3 48.8v50.8h29V48.8h-29zm10.8 43h-7.6v-7.6h7.6v7.6zm0-13.8h-7.6v-7.6h7.6V78zm0-13.9h-7.6v-7.6h7.6v7.6zm12.2 27.7h-7.6v-7.6h7.6v7.6zm0-13.8h-7.6v-7.6h7.6V78zm0-13.9h-7.6v-7.6h7.6v7.6zM0 48.8v50.8h29V48.8H0zm14.1 43H6.5v-7.6h7.6v7.6zm0-13.8H6.5v-7.6h7.6V78zm0-13.9H6.5v-7.6h7.6v7.6zm12.2 27.7h-7.6v-7.6h7.6v7.6zm0-13.8h-7.6v-7.6h7.6V78zm0-13.9h-7.6v-7.6h7.6v7.6z"/><path d="M62.4 0c-6.5 0-11.8 5.3-11.8 11.8 0 6.5 5.3 11.8 11.8 11.8 6.5 0 11.8-5.3 11.8-11.8C74.3 5.3 69 0 62.4 0zm3.1 15.2V21h-6.3v-5.8h-5.8V8.9h5.8V3.1h6.3v5.8h5.8v6.3h-5.8z" fill="#acdc6c"/><path class="st0" d="M76 21.6c-2.9 4.4-7.8 7.3-13.5 7.3s-10.5-3-13.4-7.3H33v77.8h58.3V21.6H76zM47.3 86.3h-7.6v-7.6h7.6v7.6zm0-13.8h-7.6v-7.6h7.6v7.6zm.5-16h-7.6v-7.6h7.6v7.6zm0-13.8h-7.6V35h7.6v7.7zm11.6 43.6h-7.6v-7.6h7.6v7.6zm0-13.8h-7.6v-7.6h7.6v7.6zm.5-16h-7.6v-7.6h7.6v7.6zm0-13.8h-7.6V35h7.6v7.7zm12.4 43.6h-7.6v-7.6h7.6v7.6zm0-13.8h-7.6v-7.6h7.6v7.6zm0-16h-7.6v-7.6h7.6v7.6zm0-13.8h-7.6V35h7.6v7.7zm12.1 43.6h-7.6v-7.6h7.6v7.6zm0-13.8h-7.6v-7.6h7.6v7.6zm0-16h-7.6v-7.6h7.6v7.6zm0-13.8h-7.6V35h7.6v7.7z"/></svg>