<svg xmlns="http://www.w3.org/2000/svg" viewBox="0 0 51.7 26.8"><style>.st0{fill:#6cacdc}.st0,.st1,.st2{fill-rule:evenodd;clip-rule:evenodd}.st1{fill:#acdc6c}.st2{fill:#fefefe}</style><path class="st0" d="M16.6 18.5c.4.6 1.1.8 1.7.9-3.2 2.1-5.1 2-5.5 7.4h25.9c-.5-5.3-2.4-5.4-5.6-7.3l-.1-.1c.9.1 1.6-.3 2.2-.9-1.9.1-2.9-1.2-3.3-2.9-.3-1.8-.4-3.6-.5-4.9-.2.4-.6.6-.9.5-.5 2-2.3 3.8-2.3 3.8 0 .6.5 1.7.6 2.1-.2.4-.5.8-.7 1.1-1.5 1.3-4.3 1.2-5.5-1 .3-.6.6-1.5.6-2.2 0 0-1.8-1.5-2.3-3.8-.3 0-.6-.2-.9-.6 0 1.2 0 3.1-.3 4.9-.2 1.8-1.1 3.1-3.1 3z"/><path class="st1" d="M31.3 7.8V2s-5.5-4.5-11.1 0v5.8S22 6 25.7 5.9c3.7 0 5.6 1.9 5.6 1.9z"/><path class="st2" d="M25.2 4.7h1V3.5h1.1v-.8h-1.1V1.5h-1v1.2h-1v.8h1z"/><path class="st0" d="M35.9 15.5c-1 .7-1.8 1.1-2.5 1.5.4.5 1 .8 1.7.8h1.8l-1.1 1.3c-.2.2-.5.4-.7.5.9.5 1.6 1 2.3 1.5.2.2.3.3.4.5h13.9c-.3-4.2-1.9-4.3-4.5-5.8-.9-1.8-1.2-5.4-1.3-7.2-.2.3-.4 1-.7 1-.5 1.5-1.7 2.8-1.7 2.8-.1.5.3 1.3.4 1.7-.2.3-.4.6-.6.8-1.2 1.1-3.3 1.1-4.4-.8.2-.5.5-1.2.5-1.7 0 0-1.3-1.1-1.7-2.8-.3 0-.5-.6-.7-1 0 1.8-.3 5.1-1.1 6.9z"/><path class="st1" d="M45.9 6.5V1.8s-4.5-3.5-8.9 0v4.7s1.4-1.4 4.4-1.5c3 0 4.5 1.5 4.5 1.5z"/><path class="st2" d="M41 4h.8V3h.9v-.6h-.9v-1H41v1h-.8V3h.8z"/><path class="st0" d="M37.1 7.3l5.5-.1.2-1.7c-.5-.1-.9-.2-1.3-.2-1.1.1-2.2.3-3.2.8-.4.2-.8.5-1.1.7l-.2.1c.1.3.1.4.1.4zm5.7-1.9l.2 1.8h.4l.2-1.5c-.3-.2-.5-.3-.8-.3zm.9.2l.1 1.5h.7V5.9c-.2-.1-.5-.2-.8-.3zm.9.4l.1 1.1h1.1c.1 0 .1-.1.1-.2l-.3-.3c-.2-.2-.7-.4-1-.6zM7.4 14.8c-.2.1-.5.2-.7.3v1.1c1.4.2 2.6 1.3 2.6 2.8v2.6c0 .2-.1.3-.3.3h-.9c-.2 0-.3-.1-.3-.3 0-.2.1-.3.3-.3h.6V19c0-1.1-1-2.2-2.2-2.2-1.2 0-2.2 1.1-2.2 2.2v2.3H5c.2 0 .3.1.3.3 0 .2-.1.3-.3.3H4c-.2 0-.3-.1-.3-.3V19c0-1.3 1.1-2.6 2.4-2.8v-.8C2 17.3 0 16.5 0 22.6h12.5c.3-.7.8-1.4 1.3-2 .7-.6 1.5-1.1 2.4-1.5-.2-.1-.4-.3-.6-.5l-1.1-1.3h1.7c.6 0 1.2-.2 1.5-.5-.9-.4-2-.8-3.3-1.3v2.1c.5.1.8.5.8 1 0 .7-.5 1.1-1.1 1.1-.6 0-1.1-.5-1.1-1.1 0-.5.4-1 .9-1.1v-2.3c-.2-.1-.4-.2-.6-.4-1.1 3.4-4.9 3.8-5.9 0z"/><path class="st0" d="M14.1 19.1c-.3 0-.6-.3-.6-.6s.3-.5.6-.5.5.2.5.5-.2.6-.5.6zm0-12s-.4-.9-.4-1.4c0 0-3.3 1.9-4.5 1.9 0 0 2.2-1.1 2.6-1.8-1 .7-3.3 1.8-4.1 1.8 0 0 1.1-.6 1.1-1.1-2.4.6-2.3 2.5-2.4 4.3 0 0-.4-2.1-.6-2.6-1-3.3 1.4-6.1 4.7-6.1 4-.1 5.9 2.8 4.5 6.4-.2.6-.8 2.8-.8 2.8 0-1.5.3-2.9-.1-4.2z"/><path class="st1" d="M10.2 9.1h.7v-.4c.1-.1.1-.1.2-.1h2.7s.1 0 .1.1l.1.1c-.1.4-.2 1.4-.6 1.7-.3.2-.8.3-1 .3-.3 0-.8-.1-1.1-.3-.2-.2-.4-.7-.5-1.1h-.7c-.1.5-.3 1-.5 1.1-.3.2-.8.3-1 .3-.2 0-.7-.1-1-.3-.4-.3-.5-1.3-.6-1.7l.1-.1c0-.1.1-.1.2-.1H10c.1 0 .1 0 .2.1l.1.1c-.1.1-.1.2-.1.3zm3.3-.1c-.1.6-.2 1.1-.4 1.2-.1.1-.4.1-.7.1-.4 0-.7 0-.8-.1-.2-.1-.3-.7-.4-1.2h2.3zM9.8 9c-.1.6-.2 1.1-.4 1.2-.1.1-.4.1-.8.1-.3 0-.6 0-.7-.1-.1-.1-.2-.7-.3-1.2h2.2z"/></svg>