<svg xmlns="http://www.w3.org/2000/svg" viewBox="0 0 40.6 43"><style>.st0,.st1{fill-rule:evenodd;clip-rule:evenodd;fill:#acdc6c}.st1{fill:#6cacdc}</style><path class="st0" d="M31.9 38c-.3 0-.6-.3-.6-.6s.3-.5.6-.5.5.2.5.5c-.1.3-.2.6-.5.6z"/><path class="st1" d="M23.4 17.1v.3h-.3l-.1.5h1.1l.2-.4-.3-.1-.2-.2-.2-.4-.1-.5H23l-.1.2v.2l.2.2z"/><path class="st0" d="M8.2 6.9s-.1.1-.4.3c-.2.2-.6.4-1 .8-.2.1-.5.4-.8.6-.3.3-.6.5-.8.9-.3.3-.6.7-.9 1-.3.4-.6.8-1 1.1-.3.5-.6.9-.9 1.3-.1.3-.3.6-.4.8 0 .3-.2.5-.3.7-.3.5-.5 1.1-.8 1.6-.1.3-.2.7-.2 1-.2.3-.3.6-.3.9-.1.7-.3 1.2-.4 1.9 0 .4-.1.7-.1 1v1.6l.1.6c0 .3 0 .6.1 1l.2 1c0 .2.1.4.1.5l.1.5c.2.4.3.7.4 1.1l.4.9c.2.4.4.7.6 1 .1.2.3.5.5.9.2.2.4.5.6.8l.7.7c.5.5 1 1 1.4 1.3 1 .8 2 1.3 3.2 1.7 1.1.5 2 .8 3.1 1 1 .1 1.6.3 2.7.3h.6c.7 0 1.9-.1 2.6-.2.2-.1.5-.1.7-.2 0 0-.1 0-.3.1h-.5c-.6-.4-.9-.4-1.2-.4h-2.8c-.2 0-.4-.1-.7-.1-.4 0-.9-.2-1.3-.3-1-.2-1.9-.5-3-1-1-.5-2-1.1-2.9-1.9-.5-.4-1-.8-1.3-1.2-.2-.3-.4-.5-.6-.7-.1-.3-.2-.5-.4-.8-.6-1.1-1.2-2.2-1.4-3.4l-.3-.6c0-.1 0-.3-.1-.5l-.1-.9c0-.4 0-.7-.1-1.1v-.9c0-.3.1-.6.1-1 0-.3.1-.6.1-.9.1-.6.3-1.2.4-1.8.1-.3.2-.6.3-.8l.3-.9c.2-.5.4-1.1.7-1.4.2-.3.3-.5.4-.8.2-.2.3-.4.5-.7.3-.4.6-.8.9-1.1.3-.4.6-.8.9-1.1l.9-.9.8-.8c.3-.2.5-.4.8-.5.4-.4.8-.6 1-.8.3-.2.5-.3.5-.3l-1.4-.9z"/><path class="st0" d="M9.2 6.3c.1.1.2 0 .2 0s0 .2-.1.3c0 0-.4.5-.3.7.1.2.8.1.8.1 0-.1.1-.1.2-.1-.1 0-.1.1-.1.2l.3 1.1.8-.8.1-.8v-.1s.2-.1.2-.2L14 5.1l1.4 4.1c.1.1.1.1.2.1l.8-.7c.1-.1.1-.3.1-.4l-.8-4.3 2.7-1.7c.4-.4.8-1 .8-1.1 0-.2 0-.3-.1-.4 0-.1-.2-.2-.3-.3-.3-.1-.9.1-1.3.4l-2.7 1.6L11 0h-.3l-.9.4v.3L13 3.5l-2.7 1.8c0 .1-.1.1-.1.1H10l-.7-.2-1 .5h.1l.8.6z"/><path class="st1" d="M21.1 25.9c-.4-1-.4-2.2-.1-3.2l-.7.6.1.4h.4l-.1.5-.3.1v1.1l.9 1v-.1c-.1-.1-.1-.3-.2-.4zm-6.4 13.9c-4.9-.6-9.1-3.8-11.2-8.2l-.4-.3c-.2-.3-.4-.6-.7-.9-.2-.2-.4-.5-.6-.8l-.6-.9-.1-.2C2.5 35.1 7.8 40.1 14.4 41c.1-.4.2-.9.3-1.2z"/><path class="st1" d="M1.9 24.5v.4l.2.5c0 .3.1.4.1.7v-.3c0-2 .4-3.9 1.1-5.5v.8l.6.3v1.1l.6 1 .5-.1.1-.4-.6-.9-.1-.8h.3l.1.9.9 1.1-.2.3.5.8 1.2.4v-.3l.5.1-.1.4.4.1.7.1.9 1.1h1.1l.1 1-.8.5v.9l-.2.3 1 1.3.1.5.4.1c.1 0 .9.7.9.7V34l.4.1-.1.2c.1 0 .2.1.4.1s.4.1.6.1h.5c.2 0 .4.1.6.1h1c.2-.1.3-.1.5-.1h.2l.5-.7-.2-.9.3-.5.8.1.6-.5.2-1.7.6-.8.1-.5-.6-.2-.6-.5h-1.2l-1-.4-.1-.8-.3-.6h-.9l-.5-.8-.4-.2v.3l-1 .1-.2-.5-1-.2-.7.9-1.1-.2-.1-1.3-.9-.1.4-.7v-.4l-1.1.8-.8-.1-.1-.5.1-.6.4-.7.9-.5H10v.6l.6.2v-.9l.4-.4.9-.7.1-.3.9-1 1-.5-.1-.1.7-.6h.2l.1.2.2-.3h-.1l-.3-.1v-.3l.1-.1h.3l.1.3.2-.1h.4l.1-.2h.3v.3l-.3.1v.3l.9.2v.1l.2-.1v-.3l-.7-.3v-.2l.6-.1v-.6l-.6-.3v-.9l-.8.4h-.3l.1-.7-1-.2-.4.3v1l-.8.6-.3.6-.3.1v-.9l-.8-.1-.3-.2-.2-.6 1.2-.7.6-.2.2.4h.3v-.2l.4-.1v-.1h-.2v-.3h.5l.3-.3v-.1l1-.1.3.3-1 .7 1.3.3.3-.5h.6l.2-.4-.4-.1v-.5l-1.4-.7-.9.1-.4.5v.7h-.6l-.1-.4.6-.6h-1l-.3.1-.1.3.4.1-.1.3-.6.1-.1.2-.9.1s0-.5-.1-.5.7-.1.7-.1l.6-.5-.3-.1-.3.3h-.7l-.4-.5h-.8l-.9.6h.8l.1.3-.2.1.9.1.1.3-1-.1v-.2l-.7-.1-.3-.2h-.6c2.3-1.7 5.2-2.7 8.2-2.7 3.6 0 6.9 1.2 9.4 3.5l-.1.3-.7.2-.2.4v.3l.4.1.2.5.6-.2.1.3c.5-.2 1.1-.3 1.8-.3.5 0 .9.1 1.3.2-.4-.6-.8-1.1-1.3-1.6-.1-.1-.2-.1-.2-.3-.3-.2-.6-.5-.8-.7-2.8-2.5-6.4-4-10.4-4S8.8 11.8 6 14.4c-.7.6-1.2 1.2-1.8 1.9-1 1.4-1.9 3.1-2.4 4.7l-.1.9v.9c.1.3.1.7.1 1l.1.7z"/><path d="M28.9 19.4c.3.1.4.3.5.6l-.2-.1-.3.1v-.6z" fill-rule="evenodd" clip-rule="evenodd" fill="#67cdfd"/><path class="st1" d="M12.7 35.7v1.1l.7 1.1.8.8h.8l.1-.3-.6-.4v-.3l.1-.4.1-.2-.5-.1-.2-.3.3-.3.1-.3-.4-.1v-.3h.6l.1-.1h-2z"/><path d="M15.2 18.6l-.1.2h-.4v.2h.1v.1h.3l.1-.1.1-.2.2-.1.1-.1h-.4z" fill-rule="evenodd" clip-rule="evenodd" fill="#21acfc"/><path class="st1" d="M23 17.3V17l-.3-.2-.2.2-.3.4v.4h.3z"/><path class="st0" d="M36.9 36.8c-.2-.1-2-1.1-2-1.1.8.1 1.5-.2 2.1-.9-1.5.1-2.9-1-3.1-2.4-.3-1.3-.4-2.7-.5-3.9-.1-1.3 0-3.3-.2-5.3-.3-3.7-2-6.1-5.9-6-2.4 0-4.4 1.3-5.4 3.5-1.7 4.5.1 4.7-.1 7.9 0 1.1-.2 2.5-.4 3.7-.3 1.4-1.6 2.5-3.1 2.4.4.6 1.1.9 1.7.9-3.2 2.1-5 2-5.4 7.4h25.8c-.1-4.1-1.4-5.1-3.5-6.2zm-10.2 3.8c0 .2-.1.3-.3.3h-.9c-.2 0-.3-.1-.3-.3 0-.2.1-.3.3-.3h.6v-2.4c0-1.2-1-2.3-2.3-2.3-1.3 0-2.3 1.1-2.3 2.3v2.4h.7c.2 0 .3.1.3.3 0 .2-.1.3-.3.3h-1c-.2 0-.3-.1-.3-.3v-2.7c0-1.4 1.1-2.7 2.5-2.9v-.8l.6-.4V35c1.5.2 2.7 1.4 2.7 2.9v2.7zm-2.2-7c.3-.6.6-1.5.6-2.2 0 0-1.7-1.4-2.2-3.6-.3-1.5 1-2.8 1.2-4.3 1.6-.1 2-.1 3.2-.6-.5.7-1.1.9-1.7 1.1 2 .1 3.5-1.2 3.5-1.1-.1.3-.4.6-.7 1 1.4-.4 1.9-1 2.6-1.7 2.8 3.6 1.5 7.4-.8 9.4-.1.7.4 1.7.5 2.1-.2.4-.5.8-.7 1.1-1.5 1-4.2 1-5.5-1.2zm7.4 5c-.6 0-1.2-.5-1.2-1.2 0-.5.4-1 .9-1.1v-2.4l.6.3v2.2c.5.1.8.5.8 1 0 .7-.5 1.2-1.1 1.2z"/></svg>