<svg xmlns="http://www.w3.org/2000/svg" viewBox="0 0 40 40"><path d="M20 0c5.5 0 10.5 2.2 14.1 5.9C37.8 9.5 40 14.5 40 20s-2.2 10.5-5.9 14.1C30.5 37.8 25.5 40 20 40S9.5 37.8 5.9 34.1C2.2 30.5 0 25.5 0 20S2.2 9.5 5.9 5.9C9.5 2.2 14.5 0 20 0m13 7c-3.3-3.3-8-5.4-13-5.4-5.1 0-9.7 2.1-13 5.4-3.3 3.3-5.4 7.9-5.4 13S3.7 29.7 7 33c3.3 3.3 8 5.4 13 5.4 5.1 0 9.7-2.1 13-5.4 3.3-3.3 5.4-8 5.4-13 0-5.1-2-9.7-5.4-13"/><path d="M14.9 20c0-2.8 2.3-5.1 5.1-5.1s5.1 2.3 5.1 5.1-2.3 5.1-5.1 5.1-5.1-2.3-5.1-5.1m10.4-10H14.7c-2.6 0-4.7 2.1-4.7 4.7v10.6c0 2.6 2.1 4.7 4.7 4.7h10.6c2.6 0 4.7-2.1 4.7-4.7V14.7c0-2.6-2.1-4.7-4.7-4.7m-10.6 1.2h10.6c2 0 3.6 1.6 3.6 3.6v10.6c0 2-1.6 3.6-3.6 3.6H14.7c-2 0-3.6-1.6-3.6-3.6V14.7c.1-1.9 1.7-3.5 3.6-3.5m11.6 1.5c-.6 0-1 .5-1 1 0 .6.5 1 1 1s1-.5 1-1c.1-.6-.4-1-1-1m.2 7.3c0-3.6-2.9-6.5-6.5-6.5s-6.5 2.9-6.5 6.5 2.9 6.5 6.5 6.5 6.5-2.9 6.5-6.5"/></svg>