<svg version="1.1" id="Слой_1" xmlns="http://www.w3.org/2000/svg" x="0" y="0" viewBox="0 0 150 125" xml:space="preserve"><style>.st0{fill:#b5d277}.st1{fill:#82a7d1}.st2{fill:#fff}</style><path class="st0" d="M13.5 47.9h100v17.2h-100z"/><path class="st1" d="M114.8 71.2h.2V40c0-2.9-2.4-5.3-5.3-5.3H17.3c-2.9 0-5.3 2.4-5.3 5.3v56.8c0 2.9 2.4 5.3 5.3 5.3h73c-.4-1.8-.7-3.8-.7-5.7 0-13.9 11.3-25.2 25.2-25.2zM13.5 61.6V44.4h100v17.2h-100z"/><circle class="st2" cx="103" cy="90" r="35"/><path class="st1" d="M72 90c0 17.1 13.9 31.1 31.1 31.1 17.1 0 31.1-13.9 31.1-31.1 0-17.1-13.9-31.1-31.1-31.1C85.9 59 72 72.9 72 90zm55.2 0c0 13.2-10.7 23.9-23.9 23.9S79.5 103.2 79.5 90s10.7-23.9 23.9-23.9 23.8 10.7 23.8 23.9z"/><circle class="st0" cx="103" cy="90" r="24.3"/><path class="st2" d="M115.1 84.7c0 1.5-.2 2.8-.7 4-.5 1.2-1.1 2.1-2 2.9-.9.8-2 1.4-3.3 1.8-1.3.4-2.8.6-4.6.6h-2.2v8.5c0 .1 0 .3-.1.4-.1.1-.2.2-.4.3-.2.1-.5.1-.8.2-.3 0-.8.1-1.3.1s-1 0-1.3-.1c-.3 0-.6-.1-.8-.2-.2-.1-.3-.2-.4-.3-.1-.1-.1-.2-.1-.4V78.6c0-.6.2-1.1.5-1.5.3-.3.8-.5 1.3-.5h6.3c.6 0 1.2 0 1.8.1.6 0 1.3.2 2 .3.8.2 1.6.4 2.4.9.8.4 1.5 1 2.1 1.6.6.7 1 1.4 1.3 2.3.1.9.3 1.9.3 2.9zm-5.7.4c0-.9-.2-1.7-.5-2.3-.3-.6-.7-1-1.2-1.3-.5-.3-1-.5-1.5-.5-.5-.1-1.1-.1-1.6-.1h-2.3v9h2.4c.9 0 1.6-.1 2.2-.3.6-.2 1.1-.6 1.4-1 .4-.4.7-.9.8-1.5.2-.7.3-1.3.3-2z"/><path class="st2" d="M106.3 100.8H95.4c-.4 0-.6-.3-.6-.6v-2.5c0-.4.3-.6.6-.6h10.9c.4 0 .6.3.6.6v2.5c.1.3-.2.6-.6.6z"/></svg>