<svg version="1.1" id="Слой_1" xmlns="http://www.w3.org/2000/svg" x="0" y="0" viewBox="0 0 150 125" xml:space="preserve"><style>.st1,.st2{fill-rule:evenodd;clip-rule:evenodd;fill:#82a7d1}.st2{fill:#fff}</style><path d="M74.3 76.3h2.2V75H87c.3.3.3.5.3.5 0 1.4-.5 5.2-1.9 6.3-1.1.5-2.7.8-3.5.8-.8 0-2.4-.3-3.5-.8-.8-.8-1.4-2.4-1.6-4.1H74c-.3 1.6-.8 3.3-1.6 4.1-1.1.5-2.7.8-3.5.8-.8 0-2.5-.3-3.5-.8-1.4-1.1-1.9-4.9-1.9-6.3 0 0 0-.3.3-.5H74c.3.3.3.5.3.5v.8zm11.4 0c-.3 1.9-.8 3.8-1.1 4.4-.5.3-1.4.3-2.7.3-1.3 0-2.4 0-2.7-.3-.5-.5-1.1-2.4-1.4-4.4h7.9zm-13 0c-.3 1.9-.5 3.8-1.1 4.4-.5.3-1.4.3-2.7.3-1.4 0-2.2 0-2.7-.3-.3-.5-.8-2.4-1.1-4.4h7.6z" fill-rule="evenodd" clip-rule="evenodd" fill="#b5d277"/><path class="st1" d="M64 97c-17.4 9.8-26.4 4.1-26.4 28h73.8c0-23.1-9-18.2-26.4-28-3 2.7-6.5 4.6-10.3 4.6-4.2 0-7.7-1.9-10.7-4.6zm23.7-27.8s-1.1-3-1.1-5.2c0 0-12 7.1-16 7.1 0 0 7.9-3.8 9-6.8-3.8 2.7-11.7 6.8-14.4 6.5 0 0 3.5-1.9 4.1-3.5-8.4 1.9-8.2 8.7-8.4 15.5 0 0-1.6-7.6-2.2-9.2-3.5-12.2 4.9-21.8 16.9-22 14.2-.3 20.9 10.1 16 22.8-.8 2.2-3.3 9.8-3.3 9.8.4-4.9 1.3-10.1-.6-15z"/><path class="st1" d="M11.2 97.8c.8 1.1 2.4 1.6 3.8 1.9-7.1 4.6-11.2 4.3-12.5 16.6H36c.5-4.3 2.2-8.4 5.2-11.2 2.5-2.2 6-3.3 9-4.6-.8-.3-1.6-.8-1.6-.8 1.9 0 3.5-.5 4.9-1.9-3.5 0-6.5-2.5-7.1-5.7-.5-3-.8-6-1.1-8.7-.3-3.3 0-7.6-.3-12-.8-8.7-4.6-14.2-13.6-13.9-5.5 0-9.8 3-12.2 7.9-3.8 10.3.3 10.9 0 18.2-.3 2.7-.5 5.7-1.1 8.4-.6 3.3-3.6 5.8-6.9 5.8z"/><path class="st2" d="M37.9 89.9c-.3 1.4.8 3.8 1.1 4.6-.5 1.1-1.1 1.9-1.6 2.4-3.3 3-9.5 2.7-12.2-2.2.3-1.4 1.1-3.5 1.1-4.9 0 0-3.8-3.3-5.2-8.4-.5-3.5 2.2-6.3 3-9.8 3.8-.3 4.6-.3 7.1-1.4-.8 1.6-2.4 1.9-3.8 2.4 4.6.3 8.2-2.7 7.9-2.4 0 .5-.8 1.4-1.4 1.9 3.3-.8 4.4-2.2 6-3.8 6.1 8.3 3.1 16.7-2 21.6z"/><path class="st1" d="M97.2 97.8c1.1 1.1 2.5 1.6 4.1 1.9-.8.5-1.4.8-2.2 1.4 7.3 2.7 12.2 5.2 13.9 15.2h34.5c-.8-9.2-3.5-11.4-8.2-14.1-.6-.3-4.6-2.2-4.9-2.4 1.9 0 3.8-.5 4.9-1.9-3.3 0-6.3-2.5-7.1-5.7-1.4-7.6-.3-12-.8-19-.5-8.7-5.2-15.8-13.9-15.5-5.7 0-10.1 3-12.2 7.9-3.3 9 .8 16.1-1.1 26.7-.5 3-3.8 5.5-7 5.5z"/><path class="st2" d="M129 74.7l-.8.3c-.3-.3-.5-.3-.5-.3-1.3-.3-3-.5-4.9-.3-1.1 0-1.6 0-2.4.5 0 0-.3 0-.3.3-.3 0-.8.3-.8.3h-1.1c-.3 0-.5-.3-.8-.3 0-.3-.3-.3-.5-.3-.5-.3-1.1-.3-2.2-.5-1.9 0-3.5.3-4.9.5 0 0-.3 0-.5.3l-.5-.3c.3-1.1.8-2.2 1.4-3.3 7.1-.3 9.5 1.4 15.8-3.3 1.4 2 2.5 4.2 3 6.4zm-.8 1.6l.8-.3c1.1 5.4-1.4 10.6-5.2 13.9 0 1.4 1.1 3.8 1.4 4.6-.5 1.1-1.1 1.9-1.6 2.4-3.5 3-9.5 2.7-12.5-2.2.5-1.4 1.4-3.5 1.4-4.9 0 0-3-3.3-4.1-8.2-.3-1.9-.3-3.5 0-5.4l.8.3c0 .3 0 .3.3.3v.3c.5 2.4.5 2.7 1.6 3.3.5.3 1.4.5 2.5.3.8 0 1.9 0 2.7-.5 1.4-.5 1.6-3 1.9-3.3 0 0 0-.3.6-.3.5 0 .5.3.5.3s.5 2.5 1.9 3.3c1.1.5 2.2.5 3 .5.8 0 1.9-.3 2.4-.5.8-.5 1.1-.8 1.4-3.3v-.3c.2 0 .2-.3.2-.3z"/><path class="st2" d="M120.3 76c0-.3.3-.8 3-1.1h1.1c1.6 0 2.2.3 2.5.8 0 .3.3.8.3 1.1 0 .8 0 2.2-1.1 2.7-.5.3-1.3.5-2.2.5-1.4 0-2.4-.5-3-1.4-1.1-1.5-.6-2.6-.6-2.6zm-9.8 0c.3-.5.8-.8 2.5-.8h1.1c2.7.3 3 .5 3 .8 0 0 .5 1.1-.5 2.7-.5.8-1.6 1.4-3 1.4-.8 0-1.4 0-1.9-.3-1.1-.5-1.3-1.9-1.3-2.7-.2-.3-.2-.8.1-1.1z"/><path d="M88.1 36.8h24.7c2.9 0 5.3-2.1 5.3-4.6V7.1c0-2.5-2.4-4.6-5.3-4.6H59.6c-2.9 0-5.3 2.1-5.3 4.6v25.1c0 2.5 2.4 4.6 5.3 4.6H81l-.7 7.9 7.8-7.9zM63.8 11.4h44.8V14H63.8v-2.6zm0 6.7h44.8v2.6H63.8v-2.6zm0 9.3v-2.6h22.9v2.6H63.8z" fill="#82a7d1"/><path d="M135.8 44.8V27.7c0-1.6-1.5-2.9-3.3-2.9h-12.1v9.1c0 2.7-2.5 5-5.7 5h-16v6c0 1.6 1.5 2.9 3.3 2.9h16.2l4.9 4.9-.4-4.9h9.7c1.9-.1 3.4-1.4 3.4-3zm-111 0V27.7c0-1.6 1.5-2.9 3.3-2.9h24.5v9.1c0 2.7 2.5 5 5.7 5h4.6v6c0 1.6-1.5 2.9-3.3 2.9H42.3l-4.9 4.9.4-4.9h-9.7c-1.8-.1-3.3-1.4-3.3-3z" fill="#b5d277"/><path d="M63.8 11.4h44.8V14H63.8zm0 6.7h44.8v2.6H63.8zm0 6.6h22.9v2.6H63.8z" fill="#fff"/></svg>