<svg xmlns="http://www.w3.org/2000/svg" viewBox="0 0 28 23"><path d="M14 22.8c-.1-.3-.2-.7-.3-1-1.3-4.1-2.5-8.1-3.8-12.2L8.4 4.8c-.1-.3-.2-.5-.3-.6-.3-.4-.7-.6-1.2-.5-.3.1-.6.3-.9.5C4.4 5.8 3.4 7.7 2.9 10c-.2.9-.2 1.7-.2 2.6.1 1.4.4 2.8 1 4 .5 1 1.1 1.9 1.8 2.7 1.3 1.4 2.8 2.6 4.5 3.6 0 0 .1 0 .1.1H3.9c-.1 0-.2 0-.2-.1C2.2 21 1 18.8.4 16.4c-.2-.7-.3-1.3-.3-2v-1.9c.2-3.8 1.6-7 4.4-9.6C5.8 1.7 7.2.8 8.9.1c0 0 .2 0 .3-.1 1.6 5.3 3.1 10.6 4.7 16h.1c1.6-5.3 3.1-10.6 4.7-16 .1 0 .2.1.3.1 1.3.5 2.5 1.2 3.7 2.1 1.4 1.1 2.6 2.5 3.5 4.1.7 1.2 1.1 2.5 1.4 3.8.2.8.3 1.5.3 2.3v2.3c-.1 1.1-.4 2.2-.8 3.3-.7 1.8-1.6 3.4-2.8 4.9 0 .1-.1.1-.2.1h-6.3l.1-.1c1.6-.9 3-2 4.3-3.4 1-1 1.8-2.2 2.3-3.5.3-.8.5-1.5.6-2.3.1-.7.2-1.3.1-2 0-1.9-.6-3.6-1.5-5.2-.5-.8-1.1-1.5-1.8-2.2-.3-.3-.6-.5-1-.5-.4-.1-.8.1-1.1.4-.2.2-.3.5-.3.7-1.2 4-2.5 8.1-3.7 12.2-.6 1.9-1.2 3.7-1.7 5.6-.1 0-.1.1-.1.1"/></svg>