<svg xmlns="http://www.w3.org/2000/svg" viewBox="0 0 40 40"><path d="M20 0c5.5 0 10.5 2.2 14.1 5.9C37.8 9.5 40 14.5 40 20s-2.2 10.5-5.9 14.1C30.5 37.8 25.5 40 20 40S9.5 37.8 5.9 34.1C2.2 30.5 0 25.5 0 20S2.2 9.5 5.9 5.9C9.5 2.2 14.5 0 20 0m13 7c-3.3-3.3-7.9-5.4-13-5.4S10.3 3.7 7 7c-3.3 3.3-5.4 7.9-5.4 13S3.7 29.7 7 33c3.3 3.3 7.9 5.4 13 5.4s9.7-2.1 13-5.4c3.3-3.3 5.4-8 5.4-13 0-5.1-2-9.7-5.4-13"/><path d="M31.1 14.4c-.3-.2-1.4-.2-2.4-.2-1.1 0-2.2 0-2.4.1-.2.1-.8 1.4-1.4 2.6-.8 1.5-1.7 2.9-2.3 2.9-.8 0-.6-2.4-.5-4.2 0-1.2-.2-1.5-.3-1.6-.4-.3-1.5-.6-1.5-.6s-3.4-.3-3.9 1.2c.7.1 1.8-.1 1.3 4.4 0 .2-.5 2.1-2.1-.4-.6-.6-2.1-4.4-2.6-4.4-1.7 0-3.5-.1-4.1.2-.6.3.8 2.9 3 6.4 1.8 2.9 3.7 5.1 7 5.6.6.1 2.2.1 2.8-.1.3-.2-.1-2.6 1.1-2.9.5-.1 2.5 2.6 3.3 2.9.5.2 1.5.3 2.5.2 1.1 0 2.4.1 2.5-.7.3-1.7-3.4-3.9-3.5-5-.1-.8 1.4-2.1 2.1-3.2.9-1.1 1.9-2.7 1.4-3.2"/></svg>