<svg xmlns="http://www.w3.org/2000/svg" viewBox="0 0 40 40"><path d="M20 0c5.5 0 10.5 2.2 14.1 5.9C37.8 9.5 40 14.5 40 20s-2.2 10.5-5.9 14.1C30.5 37.8 25.5 40 20 40S9.5 37.8 5.9 34.1C2.2 30.5 0 25.5 0 20S2.2 9.5 5.9 5.9C9.5 2.2 14.5 0 20 0m13 7c-3.3-3.3-7.9-5.4-13-5.4S10.3 3.7 7 7c-3.3 3.3-5.4 8-5.4 13 0 5.1 2.1 9.7 5.4 13 3.3 3.3 7.9 5.4 13 5.4s9.7-2.1 13-5.4c3.3-3.3 5.4-8 5.4-13 0-5.1-2-9.7-5.4-13"/><path d="M30 15.7s-.2-1.5-.8-2.1c-.8-.8-1.6-.9-2-.9-2.9-.2-7.1-.2-7.1-.2s-4.3 0-7.1.2c-.4.1-1.3.1-2 .9-.6.6-.8 2.1-.8 2.1s-.2 1.7-.2 3.4v1.6c0 1.7.2 3.4.2 3.4s.2 1.5.8 2.1c.8.9 1.8.8 2.3.9 1.6.2 6.9.2 6.9.2s4.3 0 7.1-.2c.4-.1 1.3-.1 2-.9.6-.7.8-2.1.8-2.1s.2-1.7.2-3.4v-1.6c-.1-1.6-.3-3.4-.3-3.4m-6.6 4.1l-5.5 3v-6l2.5 1.4 3 1.6z"/></svg>