<?xml version="1.0" encoding="utf-8"?>
<!-- Generator: Adobe Illustrator 19.2.1, SVG Export Plug-In . SVG Version: 6.00 Build 0)  -->
<svg version="1.1" id="Слой_1" xmlns="http://www.w3.org/2000/svg" xmlns:xlink="http://www.w3.org/1999/xlink" x="0px" y="0px"
	 viewBox="0 0 150 125" style="enable-background:new 0 0 150 125;" xml:space="preserve">
<style type="text/css">
	.st0{fill:#82A7D1;}
	.st1{fill:#B5D277;}
	.st2{fill:#FFFFFF;}
	.st3{font-family:'Calibri-Bold';}
	.st4{font-size:69.998px;}
</style>
<g>
	<g id="XMLID_700_">
		<g id="XMLID_701_">
			<path id="XMLID_702_" class="st0" d="M100.1,16.5L100.1,16.5c3.1-1.6,6.8-0.6,8.7,2.3v0c1.2,1.8,3.1,2.9,5.3,3h0
				c3.4,0.2,6.2,2.9,6.3,6.3l0,0c0.1,2.1,1.2,4.1,3,5.3l0,0c2.9,1.9,3.9,5.6,2.3,8.7l0,0c-1,1.9-1,4.2,0,6.1l0,0
				c1.6,3.1,0.6,6.8-2.3,8.7l0,0c-1.8,1.2-2.9,3.1-3,5.3l0,0c-0.2,3.4-2.9,6.2-6.3,6.3h0c-2.1,0.1-4.1,1.2-5.3,3v0
				c-1.9,2.9-5.6,3.9-8.7,2.3l0,0c-1.9-1-4.2-1-6.1,0h0c-3.1,1.6-6.8,0.6-8.7-2.3v0c-1.2-1.8-3.1-2.9-5.3-3l0,0
				c-3.4-0.2-6.2-2.9-6.3-6.3l0,0c-0.1-2.1-1.2-4.1-3-5.3l0,0c-2.9-1.9-3.9-5.6-2.3-8.7l0,0c1-1.9,1-4.2,0-6.1l0,0
				c-1.6-3.1-0.6-6.8,2.3-8.7l0,0c1.8-1.2,2.9-3.1,3-5.3l0,0c0.2-3.4,2.9-6.2,6.3-6.3l0,0c2.1-0.1,4.1-1.2,5.3-3v0
				c1.9-2.9,5.6-3.9,8.7-2.3h0C96,17.5,98.2,17.5,100.1,16.5z"/>
		</g>
	</g>
	<g id="XMLID_719_">
		<g id="XMLID_720_">
			<polygon id="XMLID_721_" class="st1" points="70.2,35.6 77.6,31.1 83.2,37.7 91.6,35.7 95,43.7 103.6,44.4 104.3,53 112.3,56.3 
				110.3,64.8 116.9,70.4 112.4,77.8 116.9,85.2 110.3,90.8 112.3,99.3 104.3,102.6 103.6,111.2 95,111.9 91.6,119.9 83.2,117.9 
				77.6,124.5 70.2,120 62.8,124.5 57.1,117.9 48.7,119.9 45.4,111.9 36.8,111.2 36,102.6 28.1,99.3 30,90.8 23.5,85.2 28,77.8 
				23.5,70.4 30,64.8 28.1,56.3 36,53 36.8,44.4 45.4,43.7 48.7,35.7 57.1,37.7 62.8,31.1 			"/>
		</g>
	</g>
	<text transform="matrix(1 0 0 1 44.6677 100.5625)" class="st2 st3 st4">%</text>
</g>
</svg>
