<?xml version="1.0" encoding="utf-8"?>
<!-- Generator: Adobe Illustrator 19.2.1, SVG Export Plug-In . SVG Version: 6.00 Build 0)  -->
<svg version="1.1" id="Слой_1" xmlns="http://www.w3.org/2000/svg" xmlns:xlink="http://www.w3.org/1999/xlink" x="0px" y="0px"
	 viewBox="0 0 154 29.8" style="enable-background:new 0 0 154 29.8;" xml:space="preserve">
<style type="text/css">
	.st0{clip-path:url(#SVGID_2_);fill:#696A6A;}
	.st1{clip-path:url(#SVGID_2_);fill:#94CEBD;}
	.st2{clip-path:url(#SVGID_2_);fill:#323232;}
</style>
<g>
	<defs>
		<rect id="SVGID_1_" width="154" height="29.8"/>
	</defs>
	<clipPath id="SVGID_2_">
		<use xlink:href="#SVGID_1_"  style="overflow:visible;"/>
	</clipPath>
	<path class="st0" d="M16.3,9.2l-0.5,1.5c-4.8-3-11.2-1.5-14.2,3.3c-3,4.8-1.5,11.2,3.3,14.2c3.3,2.1,7.6,2.1,10.9,0l0.5,1.5h5.9
		V9.2H16.3z M10.8,24.5c-2.8,0-5-2.2-5-5c0-2.8,2.2-5,5-5c2.7,0,5,2.2,5,5C15.8,22.2,13.6,24.5,10.8,24.5"/>
	<polygon class="st0" points="44.3,9.2 38.2,9.2 37.8,9.2 26.3,9.2 25.8,14.7 34.5,14.7 25.3,29.8 31.8,29.8 44.1,29.8 43.5,24.4 
		35.1,24.4 	"/>
	<path class="st0" d="M134.2,9.2l-0.5,1.5c-4.8-3-11.2-1.5-14.2,3.3c-3,4.8-1.5,11.2,3.3,14.2c3.3,2.1,7.6,2.1,10.9,0l0.5,1.5h6V9.2
		H134.2z M128.8,24.5c-2.8,0-5-2.2-5-5c0-2.8,2.2-5,5-5c2.8,0,5,2.2,5,5C133.8,22.2,131.5,24.5,128.8,24.5"/>
	<path class="st0" d="M59.6,9.2c-1.9,0-3.8,0.5-5.4,1.5V0h-6.4v29.8h5.9l0.5-1.5c4.8,3,11.2,1.5,14.2-3.3c3-4.8,1.5-11.2-3.3-14.2
		C63.4,9.7,61.5,9.2,59.6,9.2 M59,24.5c-2.8,0-5-2.2-5-5c0-2.8,2.2-5,5-5c2.8,0,5,2.2,5,5C64,22.2,61.8,24.5,59,24.5"/>
	<polygon class="st0" points="118.2,29.8 110.6,19 117.4,9.2 110.4,9.2 104.4,18.2 104.4,0 97.9,0 97.9,29.8 104.4,29.8 104.4,20.8 
		110.9,29.8 	"/>
	<path class="st1" d="M149.9,21.7c2.2,0,4.1,1.8,4.1,4c0,2.2-1.8,4.1-4.1,4.1c-2.2,0-4.1-1.8-4.1-4.1
		C145.9,23.5,147.7,21.7,149.9,21.7"/>
	<path class="st2" d="M87.3,19.6v-6.2V19.6z"/>
	<path class="st0" d="M93.8,9.2h-6.6v10.4v1.1c0,2.1-1.7,3.8-3.8,3.8c-2.1,0-3.8-1.7-3.8-3.8v-1.1v-0.3V9.2h-6.5v11.7
		c0,2.9,0.3,5,1.6,6.5c1.1,1.4,3.1,2.3,5.8,2.3c3.2,0,5.1-0.4,6.7-1.9l0.5,1.9h6L93.8,9.2L93.8,9.2z"/>
	<path class="st2" d="M87.3,13.3V9.2V13.3z"/>
</g>
</svg>
