<?xml version="1.0" encoding="utf-8"?>
<!-- Generator: Adobe Illustrator 19.2.1, SVG Export Plug-In . SVG Version: 6.00 Build 0)  -->
<svg version="1.1" id="Слой_1" xmlns="http://www.w3.org/2000/svg" xmlns:xlink="http://www.w3.org/1999/xlink" x="0px" y="0px"
	 viewBox="0 0 150 125" style="enable-background:new 0 0 150 125;" xml:space="preserve">
<style type="text/css">
	.st0{fill:#82A7D1;}
	.st1{fill:#B5D277;}
	.st2{fill:#FFFFFF;}
</style>
<g>
	<path class="st0" d="M48.4,101.3c1.1,1.7,3,2.2,5,2.5c-9.1,6.1-14.6,5.8-16,21.2h37.4h0.6H112c-1.4-15.1-6.9-15.7-16.3-20.9
		l-0.3-0.3c2.5,0.3,4.7-0.8,6.3-2.5c-5.5,0.3-8.3-3.6-9.4-8.3c-0.8-5.2-1.1-10.5-1.4-14c-0.6,1.1-1.7,1.7-2.5,1.4
		c-1.4,5.8-6.6,11-6.6,11c0,1.7,1.4,5,1.7,6.1c-0.5,1.1-1.4,2.2-1.9,3c-4.4,3.9-12.4,3.6-16-2.8c0.8-1.7,1.7-4.4,1.7-6.3
		c0,0-5.2-4.4-6.6-11c-0.8,0-1.7-0.6-2.5-1.7c0,3.6,0,8.8-0.8,14C56.7,97.7,54.2,101.6,48.4,101.3L48.4,101.3z"/>
	<path class="st1" d="M90.6,70.5V53.7c0,0-16-12.9-31.9,0v16.8c0,0,5.2-5.2,16-5.5C85.3,65,90.6,70.5,90.6,70.5L90.6,70.5z"/>
	<polygon class="st2" points="73.2,61.4 76,61.4 76,58.1 79.3,58.1 79.3,55.6 76,55.6 76,52.3 73.2,52.3 73.2,55.6 70.2,55.6 
		70.2,58.1 73.2,58.1 	"/>
	<path class="st0" d="M103.8,92.5c-2.8,1.9-5.2,3-7.2,4.4c1.1,1.4,2.8,2.2,5,2.2h5.2l-3.3,3.8c-0.5,0.6-1.4,1.1-1.9,1.4
		c2.5,1.4,4.7,2.8,6.6,4.4c0.6,0.6,0.8,0.8,1.1,1.4H120h0.3h29.2c-0.8-12.1-5.5-12.4-12.9-16.8c-2.5-5.2-3.6-15.4-3.9-20.7
		c-0.5,0.8-1.1,2.8-1.9,2.8c-1.4,4.4-5,8-5,8c-0.3,1.4,0.8,3.9,1.1,5c-0.5,0.8-1.1,1.7-1.6,2.2c-3.6,3-9.6,3-12.7-2.2
		c0.5-1.4,1.4-3.6,1.4-5c0,0-3.9-3.3-5-8c-0.8,0-1.4-1.7-1.9-2.8C107.1,77.9,106.3,87.3,103.8,92.5L103.8,92.5z"/>
	<path class="st1" d="M132.7,66.6V53.1c0,0-12.9-10.2-25.6,0v13.5c0,0,4.1-4.1,12.7-4.4C128.3,62.2,132.7,66.6,132.7,66.6
		L132.7,66.6z"/>
	<polygon class="st2" points="118.7,59.5 120.9,59.5 120.9,56.7 123.6,56.7 123.6,54.8 120.9,54.8 120.9,52 118.7,52 118.7,54.8 
		116.2,54.8 116.2,56.7 118.7,56.7 	"/>
	<path class="st0" d="M107.4,68.8l15.7-0.3l0.5-5c-1.4-0.3-2.5-0.5-3.9-0.5c-3.3,0.3-6.3,0.8-9.1,2.2c-1.1,0.6-2.2,1.4-3,1.9
		l-0.6,0.6C107.4,68.6,107.4,68.8,107.4,68.8L107.4,68.8z"/>
	<path class="st0" d="M123.9,63.6l0.5,5h1.1l0.5-4.4C125.3,63.9,124.7,63.6,123.9,63.6L123.9,63.6z"/>
	<path class="st0" d="M126.4,64.1l0.3,4.4h1.9V65C128,64.7,127.2,64.4,126.4,64.1L126.4,64.1z"/>
	<path class="st0" d="M128.8,65.2l0.3,3.3h3.3c0.3,0,0.3-0.3,0.3-0.5l-0.8-0.8C131.3,66.3,129.9,65.8,128.8,65.2L128.8,65.2z"/>
	<path class="st0" d="M21.7,90.6c-0.6,0.3-1.4,0.6-1.9,0.8v3.3c4.1,0.6,7.4,3.9,7.4,8v7.4c0,0.5-0.3,0.8-0.8,0.8h-2.5
		c-0.6,0-0.8-0.3-0.8-0.8c0-0.6,0.3-0.8,0.8-0.8h1.7v-6.6c0-3.3-2.8-6.3-6.3-6.3c-3.6,0-6.3,3-6.3,6.3v6.6h1.9
		c0.6,0,0.8,0.3,0.8,0.8s-0.3,0.8-0.8,0.8h-2.7c-0.6,0-0.8-0.3-0.8-0.8v-7.4c0-3.9,3-7.4,6.9-8v-2.2c-11.8,5.2-17.6,3-17.6,20.7
		h36.1c0.8-1.9,2.2-4.1,3.9-5.8c1.9-1.7,4.4-3,6.9-4.4c-0.6-0.3-1.1-0.8-1.7-1.4l-3.3-3.9h5c1.7,0,3.3-0.6,4.4-1.4
		c-2.5-1.1-5.8-2.2-9.6-3.9v5.8c0,0,0,0,0,0.3c1.4,0.3,2.2,1.4,2.2,2.8c0,1.9-1.4,3.3-3,3.3c-1.7,0-3.3-1.4-3.3-3.3
		c0-1.4,1.1-2.8,2.5-3l0,0v-6.6c-0.6-0.3-1.1-0.5-1.7-1.1C35.7,100.5,24.7,101.6,21.7,90.6L21.7,90.6z"/>
	<path class="st0" d="M41.3,103c-0.8,0-1.7-0.8-1.7-1.7s0.8-1.4,1.7-1.4c0.8,0,1.4,0.5,1.4,1.4S42.1,103,41.3,103L41.3,103z"/>
	<path class="st0" d="M41,68.3c0,0-1.1-2.5-1.1-4.1c0,0-9.4,5.5-13,5.5c0,0,6.3-3,7.4-5.2c-3,1.9-9.6,5.2-11.8,5.2c0,0,3-1.7,3.3-3
		C19,68.3,19.2,73.8,19,79c0,0-1.1-6.1-1.7-7.4C14.3,62,21.4,54,30.8,54c11.6-0.3,17.1,8,12.9,18.5c-0.6,1.7-2.2,8-2.2,8
		C41.5,76.3,42.4,72.1,41,68.3L41,68.3z"/>
	<path class="st1" d="M30,74.1h1.9c0-0.3,0-0.5,0-0.8V73c0.3-0.3,0.3-0.3,0.5-0.3h7.7c0,0,0.3,0,0.3,0.3l0.3,0.3
		c-0.3,1.1-0.6,4.1-1.7,5c-0.8,0.6-2.2,0.8-2.8,0.8c-0.8,0-2.2-0.3-3-0.8c-0.6-0.6-1.1-1.9-1.4-3.3H30c-0.3,1.4-0.8,2.8-1.4,3.3
		c-0.8,0.6-2.2,0.8-3,0.8c-0.6,0-1.9-0.3-2.8-0.8c-1.1-0.8-1.4-3.9-1.7-5l0.3-0.3c0-0.3,0.3-0.3,0.6-0.3h7.4c0.3,0,0.3,0,0.6,0.3
		l0.3,0.3C30,73.5,30,73.8,30,74.1L30,74.1z M39.3,73.8c-0.3,1.7-0.6,3.3-1.1,3.6c-0.3,0.3-1.1,0.3-1.9,0.3c-1.1,0-1.9,0-2.2-0.3
		c-0.5-0.3-0.8-1.9-1.1-3.6H39.3z M28.9,73.8c-0.3,1.7-0.6,3.3-1.1,3.6c-0.3,0.3-1.1,0.3-2.2,0.3c-0.8,0-1.7,0-1.9-0.3
		c-0.6-0.3-0.8-1.9-1.1-3.6H28.9z"/>
</g>
</svg>
