<svg xmlns="http://www.w3.org/2000/svg" viewBox="0 0 40 40">
	<g>
		<path d="M20,0c5.5,0,10.5,2.2,14.1,5.9C37.8,9.5,40,14.5,40,20c0,5.5-2.2,10.5-5.9,14.1C30.5,37.8,25.5,40,20,40c-5.5,0-10.5-2.2-14.1-5.9C2.2,30.5,0,25.5,0,20C0,14.5,2.2,9.5,5.9,5.9C9.5,2.2,14.5,0,20,0 M33,7c-3.3-3.3-8-5.4-13-5.4S10.3,3.6,7,7c-3.3,3.3-5.4,7.9-5.4,13c0,5.1,2.1,9.7,5.4,13c3.3,3.3,7.9,5.4,13,5.4s9.7-2.1,13-5.4c3.3-3.3,5.4-8,5.4-13C38.4,14.9,36.4,10.3,33,7"/>
		<path d="M21.5,15.9v-1.6c0-0.8,0.5-1,0.9-1h2.3V9.8h-3.2c-3.5,0-4.3,2.6-4.3,4.3v1.8h-2v2.5V20h2.1v10.2h4.1V20h3l0.1-1.6l0.2-2.5H21.5z"/>
	</g>
</svg>
