<svg xmlns="http://www.w3.org/2000/svg" viewBox="0 0 90 80.7">
	<style type="text/css">
		.st0{fill:#6CACDC;}
		.st1{fill:#ACDC6C;}
		.st2{fill:#FFFFFF;}
	</style>
	<g>
		<path class="st0" d="M34.5,9.7c-1.7,0-3.3,0-4.9,0c0-1.5,0-3,0-4.5c0.7-0.1,1.5-0.1,2.2-0.3c2.3-0.4,3.7-1.8,4.4-4c0.3-0.8,0.7-1,1.4-1c1,0.1,2.1,0,3.2,0c0,12.4,0,24.8,0,37.3c-2.1,0-4.2,0-6.3,0C34.5,28.1,34.5,18.9,34.5,9.7z"/>
		<path class="st0" d="M51.8,9.7c-1.7,0-3.3,0-4.9,0c0-1.5,0-3,0-4.5c0.7-0.1,1.5-0.1,2.2-0.3c2.3-0.4,3.7-1.8,4.4-4c0.3-0.8,0.7-1,1.4-1c1,0.1,2.1,0,3.2,0c0,12.4,0,24.8,0,37.3c-2.1,0-4.2,0-6.3,0C51.8,28.1,51.8,18.9,51.8,9.7z"/>
		<path class="st1" d="M90,66.9c-0.6,1.6-1,3.1-1.7,4.4c-0.9,1.6-0.7,3.1,0,4.7c0.7,1.5,1.1,3,1.7,4.6c-8.7-0.5-17.2-1-25.7-1.5c0-0.1,0-0.1,0-0.2c2.2-0.9,4.5-1.7,6.7-2.6c2.6-1,5.2-2,7.8-3c0.5-0.2,0.7-0.4,0.7-1c0-1.7,0-3.4,0-5c0-0.3,0-0.7,0-1.1C82.9,66.4,86.4,66.6,90,66.9z"/>
		<path class="st1" d="M10.7,66.2c0,2.1,0,4,0,5.9c0,0.8,0.2,1.1,0.9,1.4c4.5,1.7,9,3.4,13.5,5.1c0.2,0.1,0.5,0.2,0.7,0.5c-8.5,0.5-17,1-25.7,1.5c0.7-1.9,1.3-3.8,2-5.5C2.5,74,2.5,73.1,2,72c-0.7-1.6-1.3-3.3-2-5.1C3.6,66.6,7,66.4,10.7,66.2z"/>
		<path class="st1" d="M13.4,73.2c4.9,0,9.7,0,14.6,0c0,1.9,0,3.8,0,5.8c-4.9-1.9-9.8-3.8-14.6-5.6C13.4,73.3,13.4,73.2,13.4,73.2z"/>
		<path class="st1" d="M61.9,79c0-2,0-3.9,0-5.8c4.9,0,9.7,0,14.6,0c0,0,0,0.1,0,0.1C71.7,75.2,66.9,77,61.9,79z"/>
		<rect x="11.5" y="58.4" class="st1" width="67" height="13.8"/>
		<path class="st0" d="M35.7,54.6l-0.1-1.7l1.2-0.1v-6.9h-2.3c0,6.4-1.7,9-4,9c-0.9,0-1.2-0.3-1.2-0.3l0.1-2c0,0,0.2,0.1,0.6,0.1c1.3,0,2.1-1.5,2.3-6.8l-1.5-0.1l0.1-1.7h9.6v1.7l-1.2,0.1v7l1.2,0.1l-0.1,1.7H35.7z"/>
		<path class="st0" d="M48.3,46.9l-0.1-1h-2.9v2.5l4.2,0v1.8h-4.2v2.6h3.2l0.2-1.2l1.8,0.1l-0.1,2.9h-8.7l-0.1-1.7l1.2-0.1v-7.1l-1.2-0.1l0.1-1.6h6.4l2.1-0.1v3H48.3z"/>
		<path class="st0" d="M51.1,47.2l0.1-3.3l2.1,0.1h5.5l2.1-0.1v3.3h-1.8l-0.1-1.3h-1.7v6.9l1.2,0.1l-0.1,1.7h-4.7l-0.1-1.7l1.2-0.1v-6.9H53l-0.2,1.3H51.1z"/>
		<path class="st2" d="M21.6,68.2l-0.1-0.8l0.6,0v-3.4l-0.6,0l0.1-0.8h1.6v2.1h2.4v-1.4l-0.5,0v-0.7h2.1v0.8l-0.5,0v3.5l0.6,0l-0.1,0.8h-1.7V66h-2.4v1.6l0.5,0l-0.1,0.7H21.6z"/>
		<path class="st2" d="M28.6,64.7l0-1.7h0.7l0.1,0.3c0.3-0.2,0.8-0.4,1.3-0.4c1.1,0,1.8,0.6,1.8,1.9v2.6l0.6,0l-0.1,0.8h-1.5l-0.2-0.6c-0.1,0.1-0.5,0.8-1.6,0.8c-1.2,0-1.8-0.6-1.8-1.5c0-1.5,2.1-1.6,3.4-1.7v-0.3c0-0.8-0.3-1.2-1-1.2c-0.5,0-0.8,0.2-1,0.3l-0.1,0.6H28.6z M31.5,66.9v-1.1c-1.2,0.1-2.2,0.2-2.2,0.9c0,0.6,0.3,0.8,1,0.8C31.1,67.6,31.4,67,31.5,66.9z"/>
		<path class="st2" d="M36.6,70.8L36.5,70l0.6,0v-6l-0.6,0l0.1-0.8h1.5l0.1,0.5c0.1-0.1,0.6-0.6,1.7-0.6c1.4,0,2.3,0.9,2.3,2.5c0,1.7-0.9,3-2.4,3c-1.1,0-1.5-0.4-1.5-0.4h0v2l0.6,0l-0.1,0.8H36.6z M38.3,64.4v2.7c0.1,0.1,0.4,0.4,1.2,0.4c1.2,0,1.6-0.8,1.6-2.1c0-1.3-0.5-1.7-1.5-1.7C38.7,63.8,38.3,64.3,38.3,64.4z"/>
		<path class="st2" d="M42.9,67.4l0.6,0v-3.4l-0.6,0l0.1-0.8h1.6v1.8h0.8c1.4,0,2.4,0.3,2.4,1.5c0,1.2-0.9,1.8-2.4,1.8h-2.5L42.9,67.4z M44.6,65.6v1.9h0.8c0.8,0,1.3-0.3,1.3-1c0-0.7-0.6-0.8-1.3-0.8H44.6z M48.8,68.2v-4.4l-0.5,0l0.1-0.7h2.1v0.8l-0.5,0v3.5l0.6,0l-0.1,0.8H48.8z"/>
		<path class="st2" d="M51.3,68.2l-0.1-0.8l0.6,0v-3.4l-0.6,0l0.1-0.8h1.6v2.1h2.4v-1.4l-0.5,0v-0.7H57v0.8l-0.5,0v3.5l0.6,0L57,68.2h-1.7V66h-2.4v1.6l0.5,0l-0.1,0.7H51.3z"/>
		<path class="st2" d="M57.8,68.2l-0.1-0.8l0.6,0v-3.4l-0.7,0l0.1-0.8h1.7v2.2l0.7-0.3l0.8-1.1l-0.2,0l0.1-0.7h2.1v0.8L61.9,64l-1,1.3l1.4,2l1,0l-0.1,0.9h-1.5l-0.4-0.4l-1.4-2L59.5,66v1.4l0.5,0l-0.1,0.7H57.8z"/>
		<path class="st2" d="M64.7,65.9c0.1,1.1,0.7,1.6,1.6,1.6c0.9,0,1.4-0.6,1.4-0.6l0.5,0.6c0,0-0.6,0.9-2,0.9c-1.7,0-2.7-0.9-2.7-2.7c0-1.8,1-2.7,2.5-2.7c1.4,0,2.2,0.8,2.2,2.3c0,0.4-0.2,0.8-0.2,0.8H64.7z M64.7,65.2h2.6c0,0,0-0.1,0-0.2c0-0.8-0.4-1.2-1.2-1.2C65.2,63.7,64.8,64.2,64.7,65.2z"/>
	</g>
</svg>
