<svg xmlns="http://www.w3.org/2000/svg" viewBox="0 0 51.7 26.8">
	<style type="text/css">
		.st0{fill-rule:evenodd;clip-rule:evenodd;fill:#6CACDC;}
		.st1{fill-rule:evenodd;clip-rule:evenodd;fill:#ACDC6C;}
		.st2{fill-rule:evenodd;clip-rule:evenodd;fill:#FEFEFE;}
	</style>
	<g>
		<path class="st0" d="M16.6,18.5c0.4,0.6,1.1,0.8,1.7,0.9c-3.2,2.1-5.1,2-5.5,7.4h13H26h12.7c-0.5-5.3-2.4-5.4-5.6-7.3L33,19.4c0.9,0.1,1.6-0.3,2.2-0.9c-1.9,0.1-2.9-1.2-3.3-2.9c-0.3-1.8-0.4-3.6-0.5-4.9c-0.2,0.4-0.6,0.6-0.9,0.5c-0.5,2-2.3,3.8-2.3,3.8c0,0.6,0.5,1.7,0.6,2.1c-0.2,0.4-0.5,0.8-0.7,1.1c-1.5,1.3-4.3,1.2-5.5-1c0.3-0.6,0.6-1.5,0.6-2.2c0,0-1.8-1.5-2.3-3.8c-0.3,0-0.6-0.2-0.9-0.6c0,1.2,0,3.1-0.3,4.9C19.5,17.3,18.6,18.6,16.6,18.5L16.6,18.5z"/>
		<path class="st1" d="M31.3,7.8V2c0,0-5.5-4.5-11.1,0v5.8c0,0,1.8-1.8,5.5-1.9C29.4,5.9,31.3,7.8,31.3,7.8L31.3,7.8z"/>
		<polygon class="st2" points="25.2,4.7 26.2,4.7 26.2,3.5 27.3,3.5 27.3,2.7 26.2,2.7 26.2,1.5 25.2,1.5 25.2,2.7 24.2,2.7 24.2,3.5 25.2,3.5"/>
		<path class="st0" d="M35.9,15.5c-1,0.7-1.8,1.1-2.5,1.5c0.4,0.5,1,0.8,1.7,0.8h1.8l-1.1,1.3c-0.2,0.2-0.5,0.4-0.7,0.5c0.9,0.5,1.6,1,2.3,1.5c0.2,0.2,0.3,0.3,0.4,0.5h3.7h0.1h10.1c-0.3-4.2-1.9-4.3-4.5-5.8c-0.9-1.8-1.2-5.4-1.3-7.2c-0.2,0.3-0.4,1-0.7,1c-0.5,1.5-1.7,2.8-1.7,2.8c-0.1,0.5,0.3,1.3,0.4,1.7c-0.2,0.3-0.4,0.6-0.6,0.8c-1.2,1.1-3.3,1.1-4.4-0.8c0.2-0.5,0.5-1.2,0.5-1.7c0,0-1.3-1.1-1.7-2.8c-0.3,0-0.5-0.6-0.7-1C37,10.4,36.7,13.7,35.9,15.5L35.9,15.5z"/>
		<path class="st1" d="M45.9,6.5V1.8c0,0-4.5-3.5-8.9,0v4.7c0,0,1.4-1.4,4.4-1.5C44.4,5,45.9,6.5,45.9,6.5L45.9,6.5z"/>
		<polygon class="st2" points="41,4 41.8,4 41.8,3 42.7,3 42.7,2.4 41.8,2.4 41.8,1.4 41,1.4 41,2.4 40.2,2.4 40.2,3 41,3 	"/>
		<path class="st0" d="M37.1,7.3l5.5-0.1l0.2-1.7c-0.5-0.1-0.9-0.2-1.3-0.2c-1.1,0.1-2.2,0.3-3.2,0.8c-0.4,0.2-0.8,0.5-1.1,0.7L37,6.9C37.1,7.2,37.1,7.3,37.1,7.3L37.1,7.3z"/>
		<path class="st0" d="M42.8,5.4L43,7.2h0.4l0.2-1.5C43.3,5.5,43.1,5.4,42.8,5.4L42.8,5.4z"/>
		<path class="st0" d="M43.7,5.6l0.1,1.5h0.7V5.9C44.3,5.8,44,5.7,43.7,5.6L43.7,5.6z"/>
		<path class="st0" d="M44.6,6l0.1,1.1h1.1c0.1,0,0.1-0.1,0.1-0.2l-0.3-0.3C45.4,6.4,44.9,6.2,44.6,6L44.6,6z"/>
		<path class="st0" d="M7.4,14.8c-0.2,0.1-0.5,0.2-0.7,0.3v1.1c1.4,0.2,2.6,1.3,2.6,2.8v2.6c0,0.2-0.1,0.3-0.3,0.3H8.1c-0.2,0-0.3-0.1-0.3-0.3c0-0.2,0.1-0.3,0.3-0.3h0.6V19c0-1.1-1-2.2-2.2-2.2c-1.2,0-2.2,1.1-2.2,2.2v2.3H5c0.2,0,0.3,0.1,0.3,0.3c0,0.2-0.1,0.3-0.3,0.3H4c-0.2,0-0.3-0.1-0.3-0.3V19c0-1.3,1.1-2.6,2.4-2.8v-0.8C2,17.3,0,16.5,0,22.6h12.5c0.3-0.7,0.8-1.4,1.3-2c0.7-0.6,1.5-1.1,2.4-1.5c-0.2-0.1-0.4-0.3-0.6-0.5l-1.1-1.3h1.7c0.6,0,1.2-0.2,1.5-0.5c-0.9-0.4-2-0.8-3.3-1.3v2c0,0,0,0,0,0.1c0.5,0.1,0.8,0.5,0.8,1c0,0.7-0.5,1.1-1.1,1.1c-0.6,0-1.1-0.5-1.1-1.1c0-0.5,0.4-1,0.9-1.1l0,0v-2.3c-0.2-0.1-0.4-0.2-0.6-0.4C12.2,18.2,8.4,18.6,7.4,14.8L7.4,14.8z"/>
		<path class="st0" d="M14.1,19.1c-0.3,0-0.6-0.3-0.6-0.6s0.3-0.5,0.6-0.5c0.3,0,0.5,0.2,0.5,0.5S14.4,19.1,14.1,19.1L14.1,19.1z"/>
		<path class="st0" d="M14.1,7.1c0,0-0.4-0.9-0.4-1.4c0,0-3.3,1.9-4.5,1.9c0,0,2.2-1.1,2.6-1.8c-1,0.7-3.3,1.8-4.1,1.8c0,0,1.1-0.6,1.1-1.1C6.4,7.1,6.5,9,6.4,10.8c0,0-0.4-2.1-0.6-2.6c-1-3.3,1.4-6.1,4.7-6.1c4-0.1,5.9,2.8,4.5,6.4c-0.2,0.6-0.8,2.8-0.8,2.8C14.2,9.8,14.5,8.4,14.1,7.1L14.1,7.1z"/>
		<path class="st1" d="M10.2,9.1h0.7c0-0.1,0-0.2,0-0.3V8.7C11,8.6,11,8.6,11.1,8.6h2.7c0,0,0.1,0,0.1,0.1L14,8.8c-0.1,0.4-0.2,1.4-0.6,1.7c-0.3,0.2-0.8,0.3-1,0.3c-0.3,0-0.8-0.1-1.1-0.3c-0.2-0.2-0.4-0.7-0.5-1.1h-0.7c-0.1,0.5-0.3,1-0.5,1.1c-0.3,0.2-0.8,0.3-1,0.3c-0.2,0-0.7-0.1-1-0.3c-0.4-0.3-0.5-1.3-0.6-1.7l0.1-0.1c0-0.1,0.1-0.1,0.2-0.1H10c0.1,0,0.1,0,0.2,0.1l0.1,0.1C10.2,8.9,10.2,9,10.2,9.1L10.2,9.1z M13.5,9c-0.1,0.6-0.2,1.1-0.4,1.2c-0.1,0.1-0.4,0.1-0.7,0.1c-0.4,0-0.7,0-0.8-0.1c-0.2-0.1-0.3-0.7-0.4-1.2H13.5z M9.8,9c-0.1,0.6-0.2,1.1-0.4,1.2c-0.1,0.1-0.4,0.1-0.8,0.1c-0.3,0-0.6,0-0.7-0.1C7.8,10.1,7.7,9.5,7.6,9H9.8z"/>
	</g>
</svg>
