<svg xmlns="http://www.w3.org/2000/svg" viewBox="0 0 124.3 99.6">
	<style type="text/css">
		.st0{fill:#6CACDC;}
		.st1{fill:#ACDC6C;}
	</style>
	<g>
		<path class="st0" d="M95.3,48.8v50.8h29V48.8H95.3z M106.1,91.8h-7.6v-7.6h7.6V91.8z M106.1,78h-7.6v-7.6h7.6V78z M106.1,64.1h-7.6v-7.6h7.6V64.1z M118.3,91.8h-7.6v-7.6h7.6V91.8z M118.3,78h-7.6v-7.6h7.6V78z M118.3,64.1h-7.6v-7.6h7.6V64.1z"/>
		<path class="st0" d="M0,48.8v50.8h29V48.8H0z M14.1,91.8H6.5v-7.6h7.6V91.8z M14.1,78H6.5v-7.6h7.6V78z M14.1,64.1H6.5v-7.6h7.6V64.1z M26.3,91.8h-7.6v-7.6h7.6V91.8z M26.3,78h-7.6v-7.6h7.6V78z M26.3,64.1h-7.6v-7.6h7.6V64.1z"/>
		<path class="st1" d="M62.4,0c-6.5,0-11.8,5.3-11.8,11.8c0,6.5,5.3,11.8,11.8,11.8c6.5,0,11.8-5.3,11.8-11.8C74.3,5.3,69,0,62.4,0zM65.5,15.2V21h-6.3v-5.8h-5.8V8.9h5.8V3.1h6.3v5.8h5.8v6.3H65.5z"/>
		<path class="st0" d="M76,21.6c-2.9,4.4-7.8,7.3-13.5,7.3S52,25.9,49.1,21.6H33v77.8h58.3V21.6H76z M47.3,86.3h-7.6v-7.6h7.6V86.3zM47.3,72.5h-7.6v-7.6h7.6V72.5z M47.8,56.5h-7.6v-7.6h7.6V56.5z M47.8,42.7h-7.6V35h7.6V42.7z M59.4,86.3h-7.6v-7.6h7.6V86.3zM59.4,72.5h-7.6v-7.6h7.6V72.5z M59.9,56.5h-7.6v-7.6h7.6V56.5z M59.9,42.7h-7.6V35h7.6V42.7z M72.3,86.3h-7.6v-7.6h7.6V86.3zM72.3,72.5h-7.6v-7.6h7.6V72.5z M72.3,56.5h-7.6v-7.6h7.6V56.5z M72.3,42.7h-7.6V35h7.6V42.7z M84.4,86.3h-7.6v-7.6h7.6V86.3zM84.4,72.5h-7.6v-7.6h7.6V72.5z M84.4,56.5h-7.6v-7.6h7.6V56.5z M84.4,42.7h-7.6V35h7.6V42.7z"/>
	</g>
</svg>
