<svg xmlns="http://www.w3.org/2000/svg" viewBox="0 0 40.6 43">
	<style type="text/css">
		.st0{fill-rule:evenodd;clip-rule:evenodd;fill:#ACDC6C;}
		.st1{fill-rule:evenodd;clip-rule:evenodd;fill:#6CACDC;}
		.st2{fill-rule:evenodd;clip-rule:evenodd;}
		.st3{fill-rule:evenodd;clip-rule:evenodd;fill:#67CDFD;}
		.st4{fill-rule:evenodd;clip-rule:evenodd;fill:#21ACFC;}
	</style>
	<g>
		<path class="st0" d="M31.9,38c-0.3,0-0.6-0.3-0.6-0.6c0-0.3,0.3-0.5,0.6-0.5c0.3,0,0.5,0.2,0.5,0.5C32.3,37.7,32.2,38,31.9,38L31.9,38z"/>
		<polygon class="st1" points="23.4,17.1 23.4,17.4 23.1,17.4 23,17.9 23.5,17.9 24.1,17.9 24.3,17.5 24,17.4 23.8,17.2 23.6,16.8 23.5,16.3 23,16.3 22.9,16.5 22.9,16.7 23.1,16.9"/>
		<path class="st0" d="M8.2,6.9c0,0-0.1,0.1-0.4,0.3C7.6,7.4,7.2,7.6,6.8,8C6.6,8.1,6.3,8.4,6,8.6C5.7,8.9,5.4,9.1,5.2,9.5c-0.3,0.3-0.6,0.7-0.9,1c-0.3,0.4-0.6,0.8-1,1.1c-0.3,0.5-0.6,0.9-0.9,1.3c-0.1,0.3-0.3,0.6-0.4,0.8C2,14,1.8,14.2,1.7,14.4c-0.3,0.5-0.5,1.1-0.8,1.6c-0.1,0.3-0.2,0.7-0.2,1c-0.2,0.3-0.3,0.6-0.3,0.9c-0.1,0.7-0.3,1.2-0.4,1.9c0,0.4-0.1,0.7-0.1,1c0,0.4,0,0.7,0,1.1c0,0.1,0,0.3,0,0.5l0.1,0.6c0,0.3,0,0.6,0.1,1l0.2,1c0,0.2,0.1,0.4,0.1,0.5l0.1,0.5c0.2,0.4,0.3,0.7,0.4,1.1l0.4,0.9c0.2,0.4,0.4,0.7,0.6,1c0.1,0.2,0.3,0.5,0.5,0.9c0.2,0.2,0.4,0.5,0.6,0.8c0.2,0.2,0.5,0.5,0.7,0.7c0.5,0.5,1,1,1.4,1.3c1,0.8,2,1.3,3.2,1.7c1.1,0.5,2,0.8,3.1,1c1,0.1,1.6,0.3,2.7,0.3c0.1,0,0.3,0,0.5,0c0,0,0,0,0.1,0c0.7,0,1.9-0.1,2.6-0.2c0.2-0.1,0.5-0.1,0.7-0.2c0,0-0.1,0-0.3,0.1c-0.2,0-0.3,0-0.5,0C16.6,35,16.3,35,16,35c-0.1,0-0.3,0-0.4,0c-0.2,0-0.4,0-0.5,0c-0.2,0-0.4,0-0.6,0c-0.2,0-0.4,0-0.6,0c-0.2,0-0.4,0-0.7,0c-0.2,0-0.4-0.1-0.7-0.1c-0.4,0-0.9-0.2-1.3-0.3c-1-0.2-1.9-0.5-3-1c-1-0.5-2-1.1-2.9-1.9c-0.5-0.4-1-0.8-1.3-1.2c-0.2-0.3-0.4-0.5-0.6-0.7C3.3,29.5,3.2,29.3,3,29c-0.6-1.1-1.2-2.2-1.4-3.4L1.3,25c0-0.1,0-0.3-0.1-0.5l-0.1-0.9c0-0.4,0-0.7-0.1-1.1v-0.4c0-0.2,0-0.4,0-0.5c0-0.3,0.1-0.6,0.1-1c0-0.3,0.1-0.6,0.1-0.9c0.1-0.6,0.3-1.2,0.4-1.8c0.1-0.3,0.2-0.6,0.3-0.8c0.1-0.3,0.2-0.6,0.3-0.9c0.2-0.5,0.4-1.1,0.7-1.4c0.2-0.3,0.3-0.5,0.4-0.8c0.2-0.2,0.3-0.4,0.5-0.7c0.3-0.4,0.6-0.8,0.9-1.1c0.3-0.4,0.6-0.8,0.9-1.1c0.3-0.3,0.6-0.6,0.9-0.9c0.3-0.3,0.5-0.5,0.8-0.8c0.3-0.2,0.5-0.4,0.8-0.5c0.4-0.4,0.8-0.6,1-0.8c0.3-0.2,0.5-0.3,0.5-0.3L8.2,6.9z"/>
		<path class="st0" d="M9.2,6.3c0.1,0.1,0.2,0,0.2,0s0,0.2-0.1,0.3c0,0-0.4,0.5-0.3,0.7l0,0c0.1,0.2,0.8,0.1,0.8,0.1C9.8,7.3,9.9,7.3,10,7.3c-0.1,0-0.1,0.1-0.1,0.2l0.3,1.1L11,7.8L11.1,7V6.9c0,0,0.2-0.1,0.2-0.2L14,5.1l1.4,4.1c0.1,0.1,0.1,0.1,0.2,0.1l0.8-0.7c0.1-0.1,0.1-0.3,0.1-0.4l-0.8-4.3l2.7-1.7c0.4-0.4,0.8-1,0.8-1.1c0-0.2,0-0.3-0.1-0.4l0,0c0-0.1-0.2-0.2-0.3-0.3c-0.3-0.1-0.9,0.1-1.3,0.4l-2.7,1.6L11,0c0,0-0.2,0-0.3,0L9.8,0.4C9.8,0.5,9.8,0.6,9.8,0.7L13,3.5l-2.7,1.8c0,0.1-0.1,0.1-0.1,0.1s-0.1,0-0.2,0L9.3,5.2l-1,0.5c0.1,0,0.1,0,0.1,0L9.2,6.3z"/>
		<path class="st1" d="M21.1,25.9c-0.4-1-0.4-2.2-0.1-3.2l-0.7,0.6l0.1,0.4h0.4l-0.1,0.5l-0.3,0.1v1.1l0.9,1c0,0,0,0,0-0.1C21.2,26.2,21.2,26,21.1,25.9z"/>
		<path class="st1" d="M14.7,39.8C9.8,39.2,5.6,36,3.5,31.6l-0.4-0.3c-0.2-0.3-0.4-0.6-0.7-0.9c-0.2-0.2-0.4-0.5-0.6-0.8c-0.2-0.3-0.4-0.6-0.6-0.9l-0.1-0.2C2.5,35.1,7.8,40.1,14.4,41C14.5,40.6,14.6,40.1,14.7,39.8z"/>
		<path class="st1" d="M1.9,24.5v0.4l0.2,0.5c0,0.3,0.1,0.4,0.1,0.7v-0.3c0-2,0.4-3.9,1.1-5.5v0.8l0.6,0.3v1.1l0.6,1L5,23.4L5.1,23l-0.6-0.9l-0.1-0.8h0.3l0.1,0.9l0.9,1.1l-0.2,0.3l0.5,0.8l1.2,0.4v-0.3l0.5,0.1L7.6,25l0.4,0.1l0.7,0.1l0.9,1.1h1.1l0.1,1l-0.8,0.5v0.9L9.8,29l1,1.3l0.1,0.5l0.4,0.1c0.1,0,0.9,0.7,0.9,0.7v2.4l0.4,0.1l-0.1,0.2c0.1,0,0.2,0.1,0.4,0.1c0.2,0,0.4,0.1,0.6,0.1H14c0.2,0,0.4,0.1,0.6,0.1h1c0.2-0.1,0.3-0.1,0.5-0.1h0.2l0.5-0.7l-0.2-0.9l0.3-0.5l0.8,0.1l0.6-0.5l0.2-1.7l0.6-0.8l0.1-0.5l-0.6-0.2L18,28.3h-1.2l-1-0.4l-0.1-0.8l-0.3-0.6h-0.9L14,25.7l-0.4-0.2v0.3l-1,0.1l-0.2-0.5l-1-0.2l-0.7,0.9l-1.1-0.2l-0.1-1.3l-0.9-0.1l0.4-0.7L9,23.4l-1.1,0.8l-0.8-0.1L7,23.6L7.1,23l0.4-0.7l0.9-0.5H10v0.6l0.6,0.2v-0.9l0.4-0.4l0.9-0.7l0.1-0.3l0.9-1l1-0.5l-0.1-0.1l0.7-0.6h0.2l0.1,0.2l0.2-0.3h-0.1l-0.3-0.1v-0.3l0.1-0.1H15l0.1,0.3l0.2-0.1h0.4l0.1-0.2h0.3v0.3l-0.3,0.1v0.3l0.9,0.2v0.1l0.2-0.1v-0.3l-0.7-0.3v-0.2l0.6-0.1v-0.6l-0.6-0.3v-0.9l-0.8,0.4h-0.3l0.1-0.7l-1-0.2l-0.4,0.3v1L13,17.1l-0.3,0.6l-0.3,0.1v-0.9l-0.8-0.1l-0.3-0.2l-0.2-0.6l1.2-0.7l0.6-0.2l0.2,0.4h0.3v-0.2l0.4-0.1v-0.1h-0.2v-0.3h0.5l0.3-0.3v-0.1l1-0.1l0.3,0.3l-1,0.7l1.3,0.3l0.3-0.5h0.6l0.2-0.4l-0.4-0.1v-0.5l-1.4-0.7l-0.9,0.1L14,14v0.7h-0.6l-0.1-0.4l0.6-0.6h-1l-0.3,0.1l-0.1,0.3l0.4,0.1l-0.1,0.3l-0.6,0.1l-0.1,0.2l-0.9,0.1c0,0,0-0.5-0.1-0.5s0.7-0.1,0.7-0.1l0.6-0.5l-0.3-0.1L11.8,14h-0.7l-0.4-0.5H9.9l-0.9,0.6h0.8l0.1,0.3l-0.2,0.1l0.9,0.1l0.1,0.3l-1-0.1v-0.2l-0.7-0.1l-0.3-0.2H8.1c2.3-1.7,5.2-2.7,8.2-2.7c3.6,0,6.9,1.2,9.4,3.5l-0.1,0.3l-0.7,0.2L24.7,16v0.3l0.4,0.1l0.2,0.5l0.6-0.2l0.1,0.3c0.5-0.2,1.1-0.3,1.8-0.3c0.5,0,0.9,0.1,1.3,0.2c-0.4-0.6-0.8-1.1-1.3-1.6c-0.1-0.1-0.2-0.1-0.2-0.3c-0.3-0.2-0.6-0.5-0.8-0.7c-2.8-2.5-6.4-4-10.4-4c-4,0-7.6,1.5-10.4,4.1c-0.7,0.6-1.2,1.2-1.8,1.9c-1,1.4-1.9,3.1-2.4,4.7l-0.1,0.9v0.9c0.1,0.3,0.1,0.7,0.1,1L1.9,24.5z"/>
		<path class="st2" d="M3.8,19.1L3.8,19.1L3.8,19.1z"/>
		<path class="st3" d="M28.9,19.4L28.9,19.4c0.3,0.1,0.4,0.3,0.5,0.6l-0.2-0.1L28.9,20V19.4z"/>
		<path class="st1" d="M12.7,35.7L12.7,35.7v1.1l0.7,1.1l0.8,0.8H15l0.1-0.3L14.5,38v-0.3l0.1-0.4l0.1-0.2l-0.5-0.1l-0.2-0.3l0.3-0.3l0.1-0.3l-0.4-0.1v-0.3h0.6l0.1-0.1h-0.2c-0.1,0-0.1,0-0.1,0c-0.2,0-0.4,0-0.5,0c-0.3,0-0.5,0-0.7,0H12.7z"/>
		<path class="st4" d="M15.2,18.6l-0.1,0.2h-0.4V19h0.1c0,0,0,0,0,0.1h0.3l0.1-0.1l0.1-0.2l0.2-0.1l0.1-0.1h-0.2H15.2z"/>
		<polygon class="st1" points="23,17.3 23,17 22.7,16.8 22.5,17 22.2,17.4 22.2,17.8 22.5,17.8 	"/>
		<path class="st0" d="M36.9,36.8c-0.2-0.1-2-1.1-2-1.1c0.8,0.1,1.5-0.2,2.1-0.9c-1.5,0.1-2.9-1-3.1-2.4c-0.3-1.3-0.4-2.7-0.5-3.9c-0.1-1.3,0-3.3-0.2-5.3c-0.3-3.7-2-6.1-5.9-6c-2.4,0-4.4,1.3-5.4,3.5c-1.7,4.5,0.1,4.7-0.1,7.9c0,1.1-0.2,2.5-0.4,3.7c-0.3,1.4-1.6,2.5-3.1,2.4c0.4,0.6,1.1,0.9,1.7,0.9c-3.2,2.1-5,2-5.4,7.4c8.6,0,17.2,0,25.8,0C40.3,38.9,39,37.9,36.9,36.8z M26.7,40.6c0,0.2-0.1,0.3-0.3,0.3h-0.9c-0.2,0-0.3-0.1-0.3-0.3c0-0.2,0.1-0.3,0.3-0.3h0.6v-2.4c0-1.2-1-2.3-2.3-2.3c-1.3,0-2.3,1.1-2.3,2.3v2.4h0.7c0.2,0,0.3,0.1,0.3,0.3c0,0.2-0.1,0.3-0.3,0.3h-1c-0.2,0-0.3-0.1-0.3-0.3v-2.7c0-1.4,1.1-2.7,2.5-2.9v-0.8l0.6-0.4V35c1.5,0.2,2.7,1.4,2.7,2.9V40.6z M24.5,33.6c0.3-0.6,0.6-1.5,0.6-2.2c0,0-1.7-1.4-2.2-3.6c-0.3-1.5,1-2.8,1.2-4.3c1.6-0.1,2-0.1,3.2-0.6c-0.5,0.7-1.1,0.9-1.7,1.1c2,0.1,3.5-1.2,3.5-1.1c-0.1,0.3-0.4,0.6-0.7,1c1.4-0.4,1.9-1,2.6-1.7c2.8,3.6,1.5,7.4-0.8,9.4c-0.1,0.7,0.4,1.7,0.5,2.1c-0.2,0.4-0.5,0.8-0.7,1.1C28.5,35.8,25.8,35.8,24.5,33.6z M31.9,38.6c-0.6,0-1.2-0.5-1.2-1.2c0-0.5,0.4-1,0.9-1.1v-2.4l0.6,0.3v2.1c0,0,0,0,0,0.1c0.5,0.1,0.8,0.5,0.8,1C33,38.1,32.5,38.6,31.9,38.6z"/>
	</g>
</svg>
