<svg xmlns="http://www.w3.org/2000/svg" viewBox="0 0 44.4 38.5">
	<style type="text/css">
		.st0{fill-rule:evenodd;clip-rule:evenodd;fill:#6CACDC;}
		.st1{fill:#ACDC6C;}
	</style>
	<g>
		<path class="st0" d="M28.5,37.2c-0.9-0.6-1-1.7-1-1.7l-0.3-2.3h-10l-0.3,2.3c0,0-0.1,1.1-1,1.6c-0.9,0.7-1.5,1.2-0.9,1.2c0.7,0.1,6.7,0.1,7.1,0.1c0.5,0,6.5,0.1,7.1,0C29.9,38.3,29.3,37.9,28.5,37.2L28.5,37.2z"/>
		<path class="st0" d="M42.5,0H2C1,0,0,0.8,0,1.8v28c0,1.1,1,1.3,2,1.3h40.4c1.1,0,1.9-0.3,1.9-1.3v-28C44.4,0.8,43.5,0,42.5,0zM41.4,26.2H3.1V3h38.3V26.2z"/>
		<path class="st1" d="M16.1,13.6L16.1,13.6l1.3-4.8h1.1l2.3,8.4l0.9-3.1l0.5-0.4h2.2l1.3-4.8h1.1l1.3,4.8h3.8c0.3-0.9,0.4-1.7,0.4-2.7c0-3.4-2.7-6.2-5.9-6.2c-1.7,0-3.3,0.8-4.4,2c-1.1-1.2-2.7-2-4.4-2c-3.3,0-6,2.8-6,6.2c0,0.9,0.2,1.8,0.4,2.7H16.1z"/>
		<path class="st1" d="M27.6,14.8h3.8c-2.5,5.4-9.4,8.9-9.4,8.9s-6.9-3.5-9.4-8.9h4l0.6-0.4l0.9-3.1l2.3,8.4h1.1l1.3-4.8h2.1l0.6-0.4l0.8-3.1l0.9,3.1L27.6,14.8z"/>
	</g>
</svg>
