<svg xmlns="http://www.w3.org/2000/svg" viewBox="0 0 52.7 52.7">
	<style type="text/css">
		.st0{fill-rule:evenodd;clip-rule:evenodd;fill:#ACDC6C;}
		.st1{fill-rule:evenodd;clip-rule:evenodd;fill:#6CACDC;}
	</style>
	<g>
		<polygon class="st0" points="10.4,22.3 10.4,30.4 22.4,30.4 22.4,42.2 30.3,42.2 30.3,30.4 42.2,30.4 42.2,22.3 30.3,22.3 30.3,10.4 22.4,10.4 22.4,22.3"/>
		<path class="st1" d="M26.3,3.5c6.3,0,12,2.5,16.2,6.7c4.2,4.1,6.7,9.7,6.7,16.1c0,6.3-2.5,12-6.7,16.2c-4.1,4.1-9.8,6.7-16.2,6.7c-6.2,0-11.9-2.6-16.1-6.7C6,38.3,3.5,32.6,3.5,26.3c0-6.3,2.5-11.9,6.7-16.1C14.3,6,20.1,3.5,26.3,3.5L26.3,3.5z M44.9,7.7C40.1,3,33.6,0,26.3,0C19,0,12.5,3,7.7,7.7C3,12.4,0,19,0,26.3c0,7.3,3,13.9,7.7,18.6c4.8,4.8,11.3,7.7,18.5,7.7c7.4,0,13.9-3,18.6-7.7c4.8-4.8,7.7-11.4,7.7-18.6C52.7,19,49.7,12.4,44.9,7.7L44.9,7.7z"/>
	</g>
</svg>
