<svg xmlns="http://www.w3.org/2000/svg" viewBox="0 0 40 40">
	<g>
		<path d="M20,0c5.5,0,10.5,2.2,14.1,5.9C37.8,9.5,40,14.5,40,20c0,5.5-2.2,10.5-5.9,14.1C30.5,37.8,25.5,40,20,40c-5.5,0-10.5-2.2-14.1-5.9C2.2,30.5,0,25.5,0,20C0,14.5,2.2,9.5,5.9,5.9C9.5,2.2,14.5,0,20,0 M33,7c-3.3-3.3-8-5.4-13-5.4c-5.1,0-9.7,2.1-13,5.4c-3.3,3.3-5.4,7.9-5.4,13c0,5.1,2.1,9.7,5.4,13c3.3,3.3,8,5.4,13,5.4c5.1,0,9.7-2.1,13-5.4c3.3-3.3,5.4-8,5.4-13C38.4,14.9,36.4,10.3,33,7"/>
		<path d="M14.9,20c0-2.8,2.3-5.1,5.1-5.1c2.8,0,5.1,2.3,5.1,5.1c0,2.8-2.3,5.1-5.1,5.1C17.2,25.1,14.9,22.8,14.9,20M25.3,10H14.7c-2.6,0-4.7,2.1-4.7,4.7v10.6c0,2.6,2.1,4.7,4.7,4.7h10.6c2.6,0,4.7-2.1,4.7-4.7V14.7C30,12.1,27.9,10,25.3,10M14.7,11.2h10.6c2,0,3.6,1.6,3.6,3.6v10.6c0,2-1.6,3.6-3.6,3.6H14.7c-2,0-3.6-1.6-3.6-3.6V14.7C11.2,12.8,12.8,11.2,14.7,11.2M26.3,12.7c-0.6,0-1,0.5-1,1c0,0.6,0.5,1,1,1s1-0.5,1-1C27.4,13.1,26.9,12.7,26.3,12.7 M26.5,20c0-3.6-2.9-6.5-6.5-6.5 c-3.6,0-6.5,2.9-6.5,6.5c0,3.6,2.9,6.5,6.5,6.5C23.6,26.5,26.5,23.6,26.5,20"/>
	</g>
</svg>
