<svg xmlns="http://www.w3.org/2000/svg" width="45" height="67" viewBox="0 0 45 67">
	<style type="text/css">
		.st0{fill:#6CACDC;}
		.st1{fill:#ACDC6C;}
	</style>
	<g>
		<path class="st0" d="M22.5,0.5c-12.2,0-22.2,9.9-22.2,22.2c0,12.2,22.2,43.8,22.2,43.8s22.2-31.6,22.2-43.8C44.7,10.4,34.7,0.5,22.5,0.5z M22.5,31c-4.6,0-8.4-3.7-8.4-8.4c0-4.6,3.7-8.4,8.4-8.4s8.4,3.7,8.4,8.4C30.9,27.3,27.1,31,22.5,31z"/>
		<path class="st1" d="M22.5,9.4c-7.3,0-13.3,6-13.3,13.3c0,7.3,6,13.3,13.3,13.3s13.3-6,13.3-13.3C35.8,15.3,29.8,9.4,22.5,9.4zM22.5,31c-4.6,0-8.4-3.7-8.4-8.4c0-4.6,3.7-8.4,8.4-8.4s8.4,3.7,8.4,8.4C30.9,27.3,27.1,31,22.5,31z"/>
	</g>
</svg>
