<?xml version="1.0" encoding="utf-8"?>
<!-- Generator: Adobe Illustrator 19.2.1, SVG Export Plug-In . SVG Version: 6.00 Build 0)  -->
<svg version="1.1" id="Слой_1" xmlns="http://www.w3.org/2000/svg" xmlns:xlink="http://www.w3.org/1999/xlink" x="0px" y="0px"
	 viewBox="0 0 150 125" style="enable-background:new 0 0 150 125;" xml:space="preserve">
<style type="text/css">
	.st0{fill:#B5D277;}
	.st1{fill:#82A7D1;}
	.st2{fill:#FFFFFF;}
</style>
<g>
	<rect x="13.5" y="47.9" class="st0" width="100" height="17.2"/>
	<path class="st1" d="M114.8,71.2l0.2,0V40c0-2.9-2.4-5.3-5.3-5.3H17.3c-2.9,0-5.3,2.4-5.3,5.3v56.8c0,2.9,2.4,5.3,5.3,5.3h73
		c-0.4-1.8-0.7-3.8-0.7-5.7C89.6,82.5,100.9,71.2,114.8,71.2z M13.5,61.6V44.4h100v17.2H13.5z"/>
	<circle class="st2" cx="103" cy="90" r="35"/>
	<path class="st1" d="M72,90c0,17.1,13.9,31.1,31.1,31.1c17.1,0,31.1-13.9,31.1-31.1c0-17.1-13.9-31.1-31.1-31.1
		C85.9,59,72,72.9,72,90z M127.2,90c0,13.2-10.7,23.9-23.9,23.9S79.5,103.2,79.5,90c0-13.2,10.7-23.9,23.9-23.9S127.2,76.8,127.2,90
		z"/>
	<circle class="st0" cx="103" cy="90" r="24.3"/>
	<g>
		<path class="st2" d="M115.1,84.7c0,1.5-0.2,2.8-0.7,4c-0.5,1.2-1.1,2.1-2,2.9c-0.9,0.8-2,1.4-3.3,1.8c-1.3,0.4-2.8,0.6-4.6,0.6
			h-2.2v8.5c0,0.1,0,0.3-0.1,0.4c-0.1,0.1-0.2,0.2-0.4,0.3c-0.2,0.1-0.5,0.1-0.8,0.2c-0.3,0-0.8,0.1-1.3,0.1c-0.5,0-1,0-1.3-0.1
			c-0.3,0-0.6-0.1-0.8-0.2c-0.2-0.1-0.3-0.2-0.4-0.3c-0.1-0.1-0.1-0.2-0.1-0.4V78.6c0-0.6,0.2-1.1,0.5-1.5c0.3-0.3,0.8-0.5,1.3-0.5
			h6.3c0.6,0,1.2,0,1.8,0.1c0.6,0,1.3,0.2,2,0.3c0.8,0.2,1.6,0.4,2.4,0.9c0.8,0.4,1.5,1,2.1,1.6c0.6,0.7,1,1.4,1.3,2.3
			C114.9,82.7,115.1,83.7,115.1,84.7z M109.4,85.1c0-0.9-0.2-1.7-0.5-2.3c-0.3-0.6-0.7-1-1.2-1.3c-0.5-0.3-1-0.5-1.5-0.5
			c-0.5-0.1-1.1-0.1-1.6-0.1h-2.3v9h2.4c0.9,0,1.6-0.1,2.2-0.3c0.6-0.2,1.1-0.6,1.4-1c0.4-0.4,0.7-0.9,0.8-1.5
			C109.3,86.4,109.4,85.8,109.4,85.1z"/>
	</g>
	<path class="st2" d="M106.3,100.8H95.4c-0.4,0-0.6-0.3-0.6-0.6v-2.5c0-0.4,0.3-0.6,0.6-0.6h10.9c0.4,0,0.6,0.3,0.6,0.6v2.5
		C107,100.5,106.7,100.8,106.3,100.8z"/>
</g>
</svg>
