<?xml version="1.0" encoding="utf-8"?>
<!-- Generator: Adobe Illustrator 19.2.1, SVG Export Plug-In . SVG Version: 6.00 Build 0)  -->
<svg version="1.1" id="Слой_1" xmlns="http://www.w3.org/2000/svg" xmlns:xlink="http://www.w3.org/1999/xlink" x="0px" y="0px"
	 viewBox="0 0 150 125" style="enable-background:new 0 0 150 125;" xml:space="preserve">
<style type="text/css">
	.st0{fill-rule:evenodd;clip-rule:evenodd;fill:#B5D277;}
	.st1{fill-rule:evenodd;clip-rule:evenodd;fill:#82A7D1;}
	.st2{fill-rule:evenodd;clip-rule:evenodd;fill:#FFFFFF;}
	.st3{fill:#82A7D1;}
	.st4{fill:#B5D277;}
	.st5{fill:#FFFFFF;}
</style>
<g>
	<path class="st0" d="M74.3,76.3h2.2c0-0.3,0-0.5,0-0.8c0,0,0-0.3,0-0.5c0.3,0,0.5,0,0.5,0h9.5c0.3,0,0.5,0,0.5,0
		c0.3,0.3,0.3,0.5,0.3,0.5c0,1.4-0.5,5.2-1.9,6.3c-1.1,0.5-2.7,0.8-3.5,0.8c-0.8,0-2.4-0.3-3.5-0.8c-0.8-0.8-1.4-2.4-1.6-4.1H74
		c-0.3,1.6-0.8,3.3-1.6,4.1c-1.1,0.5-2.7,0.8-3.5,0.8c-0.8,0-2.5-0.3-3.5-0.8c-1.4-1.1-1.9-4.9-1.9-6.3c0,0,0-0.3,0.3-0.5
		c0,0,0.3,0,0.5,0h9.2c0.3,0,0.5,0,0.5,0c0.3,0.3,0.3,0.5,0.3,0.5C74.3,75.8,74.3,76,74.3,76.3L74.3,76.3z M85.7,76.3
		c-0.3,1.9-0.8,3.8-1.1,4.4c-0.5,0.3-1.4,0.3-2.7,0.3c-1.3,0-2.4,0-2.7-0.3c-0.5-0.5-1.1-2.4-1.4-4.4H85.7z M72.7,76.3
		c-0.3,1.9-0.5,3.8-1.1,4.4c-0.5,0.3-1.4,0.3-2.7,0.3c-1.4,0-2.2,0-2.7-0.3c-0.3-0.5-0.8-2.4-1.1-4.4H72.7z"/>
	<path class="st1" d="M64,97c-17.4,9.8-26.4,4.1-26.4,28h37h0.3h36.5c0-23.1-9-18.2-26.4-28c-3,2.7-6.5,4.6-10.3,4.6
		C70.5,101.6,67,99.7,64,97L64,97z"/>
	<path class="st1" d="M87.7,69.2c0,0-1.1-3-1.1-5.2c0,0-12,7.1-16,7.1c0,0,7.9-3.8,9-6.8c-3.8,2.7-11.7,6.8-14.4,6.5
		c0,0,3.5-1.9,4.1-3.5c-8.4,1.9-8.2,8.7-8.4,15.5c0,0-1.6-7.6-2.2-9.2c-3.5-12.2,4.9-21.8,16.9-22c14.2-0.3,20.9,10.1,16,22.8
		c-0.8,2.2-3.3,9.8-3.3,9.8C88.7,79.3,89.6,74.1,87.7,69.2L87.7,69.2z"/>
	<path class="st1" d="M11.2,97.8c0.8,1.1,2.4,1.6,3.8,1.9c-7.1,4.6-11.2,4.3-12.5,16.6H36c0.5-4.3,2.2-8.4,5.2-11.2
		c2.5-2.2,6-3.3,9-4.6c-0.8-0.3-1.6-0.8-1.6-0.8c1.9,0,3.5-0.5,4.9-1.9c-3.5,0-6.5-2.5-7.1-5.7c-0.5-3-0.8-6-1.1-8.7
		c-0.3-3.3,0-7.6-0.3-12c-0.8-8.7-4.6-14.2-13.6-13.9c-5.5,0-9.8,3-12.2,7.9c-3.8,10.3,0.3,10.9,0,18.2c-0.3,2.7-0.5,5.7-1.1,8.4
		C17.5,95.3,14.5,97.8,11.2,97.8L11.2,97.8z"/>
	<path class="st2" d="M37.9,89.9c-0.3,1.4,0.8,3.8,1.1,4.6c-0.5,1.1-1.1,1.9-1.6,2.4c-3.3,3-9.5,2.7-12.2-2.2
		c0.3-1.4,1.1-3.5,1.1-4.9c0,0-3.8-3.3-5.2-8.4c-0.5-3.5,2.2-6.3,3-9.8c3.8-0.3,4.6-0.3,7.1-1.4c-0.8,1.6-2.4,1.9-3.8,2.4
		c4.6,0.3,8.2-2.7,7.9-2.4c0,0.5-0.8,1.4-1.4,1.9c3.3-0.8,4.4-2.2,6-3.8C46,76.6,43,85,37.9,89.9L37.9,89.9z"/>
	<path class="st1" d="M97.2,97.8c1.1,1.1,2.5,1.6,4.1,1.9c-0.8,0.5-1.4,0.8-2.2,1.4c7.3,2.7,12.2,5.2,13.9,15.2h34.5
		c-0.8-9.2-3.5-11.4-8.2-14.1c-0.6-0.3-4.6-2.2-4.9-2.4c1.9,0,3.8-0.5,4.9-1.9c-3.3,0-6.3-2.5-7.1-5.7c-1.4-7.6-0.3-12-0.8-19
		c-0.5-8.7-5.2-15.8-13.9-15.5c-5.7,0-10.1,3-12.2,7.9c-3.3,9,0.8,16.1-1.1,26.7C103.7,95.3,100.4,97.8,97.2,97.8L97.2,97.8z"/>
	<path class="st2" d="M129,74.7l-0.8,0.3c-0.3-0.3-0.5-0.3-0.5-0.3c-1.3-0.3-3-0.5-4.9-0.3l0,0c-1.1,0-1.6,0-2.4,0.5
		c0,0-0.3,0-0.3,0.3c-0.3,0-0.8,0.3-0.8,0.3c-0.3,0-0.3,0-0.3,0c-0.3,0-0.3,0-0.5,0c0,0,0,0-0.3,0c-0.3,0-0.5-0.3-0.8-0.3
		c0-0.3-0.3-0.3-0.5-0.3c-0.5-0.3-1.1-0.3-2.2-0.5l0,0c-1.9,0-3.5,0.3-4.9,0.5c0,0-0.3,0-0.5,0.3l-0.5-0.3c0.3-1.1,0.8-2.2,1.4-3.3
		c7.1-0.3,9.5,1.4,15.8-3.3C127.4,70.3,128.5,72.5,129,74.7L129,74.7z"/>
	<path class="st2" d="M128.2,76.3L129,76c1.1,5.4-1.4,10.6-5.2,13.9c0,1.4,1.1,3.8,1.4,4.6c-0.5,1.1-1.1,1.9-1.6,2.4
		c-3.5,3-9.5,2.7-12.5-2.2c0.5-1.4,1.4-3.5,1.4-4.9c0,0-3-3.3-4.1-8.2c-0.3-1.9-0.3-3.5,0-5.4l0.8,0.3c0,0.3,0,0.3,0.3,0.3l0,0
		c0,0.3,0,0.3,0,0.3c0.5,2.4,0.5,2.7,1.6,3.3c0.5,0.3,1.4,0.5,2.5,0.3c0.8,0,1.9,0,2.7-0.5c1.4-0.5,1.6-3,1.9-3.3c0,0,0-0.3,0.6-0.3
		l0,0l0,0c0.5,0,0.5,0.3,0.5,0.3s0.5,2.5,1.9,3.3c1.1,0.5,2.2,0.5,3,0.5c0.8,0,1.9-0.3,2.4-0.5c0.8-0.5,1.1-0.8,1.4-3.3v-0.3l0,0
		C128.2,76.6,128.2,76.3,128.2,76.3L128.2,76.3z"/>
	<path class="st2" d="M120.3,76c0-0.3,0.3-0.8,3-1.1c0.5,0,0.8,0,1.1,0c1.6,0,2.2,0.3,2.5,0.8c0,0.3,0.3,0.8,0.3,1.1
		c0,0.8,0,2.2-1.1,2.7c-0.5,0.3-1.3,0.5-2.2,0.5c-1.4,0-2.4-0.5-3-1.4C119.8,77.1,120.3,76,120.3,76L120.3,76z"/>
	<path class="st2" d="M110.5,76c0.3-0.5,0.8-0.8,2.5-0.8c0.3,0,0.5,0,1.1,0c2.7,0.3,3,0.5,3,0.8c0,0,0.5,1.1-0.5,2.7
		c-0.5,0.8-1.6,1.4-3,1.4c-0.8,0-1.4,0-1.9-0.3c-1.1-0.5-1.3-1.9-1.3-2.7C110.2,76.8,110.2,76.3,110.5,76L110.5,76z"/>
	<path class="st3" d="M88.1,36.8h24.7c2.9,0,5.3-2.1,5.3-4.6V7.1c0-2.5-2.4-4.6-5.3-4.6H59.6c-2.9,0-5.3,2.1-5.3,4.6v25.1
		c0,2.5,2.4,4.6,5.3,4.6H81l-0.7,7.9L88.1,36.8z M63.8,11.4h44.8v2.6H63.8V11.4z M63.8,18.1h44.8v2.6H63.8V18.1z M63.8,27.4v-2.6
		h22.9v2.6H63.8z"/>
	<path class="st4" d="M135.8,44.8V27.7c0-1.6-1.5-2.9-3.3-2.9h-12.1v9.1c0,2.7-2.5,5-5.7,5h-16v6c0,1.6,1.5,2.9,3.3,2.9h16.2
		l4.9,4.9l-0.4-4.9h9.7C134.3,47.7,135.8,46.4,135.8,44.8z"/>
	<path class="st4" d="M24.8,44.8V27.7c0-1.6,1.5-2.9,3.3-2.9h24.5v9.1c0,2.7,2.5,5,5.7,5h4.6v6c0,1.6-1.5,2.9-3.3,2.9H42.3l-4.9,4.9
		l0.4-4.9h-9.7C26.3,47.7,24.8,46.4,24.8,44.8z"/>
	<rect x="63.8" y="11.4" class="st5" width="44.8" height="2.6"/>
	<rect x="63.8" y="18.1" class="st5" width="44.8" height="2.6"/>
	<rect x="63.8" y="24.7" class="st5" width="22.9" height="2.6"/>
</g>
</svg>
