<svg xmlns="http://www.w3.org/2000/svg" viewBox="0 0 28 23">
	<path d="M14,22.8c-0.1-0.3-0.2-0.7-0.3-1c-1.3-4.1-2.5-8.1-3.8-12.2C9.4,8,8.9,6.4,8.4,4.8C8.3,4.5,8.2,4.3,8.1,4.2C7.8,3.8,7.4,3.6,6.9,3.7C6.6,3.8,6.3,4,6,4.2C4.4,5.8,3.4,7.7,2.9,10c-0.2,0.9-0.2,1.7-0.2,2.6c0.1,1.4,0.4,2.8,1,4c0.5,1,1.1,1.9,1.8,2.7c1.3,1.4,2.8,2.6,4.5,3.6c0,0,0.1,0,0.1,0.1c-0.1,0-0.3,0-0.4,0c-1.9,0-3.9,0-5.8,0c-0.1,0-0.2,0-0.2-0.1c-1.5-1.9-2.7-4.1-3.3-6.5c-0.2-0.7-0.3-1.3-0.3-2c0-0.6,0-1.2,0-1.9c0.2-3.8,1.6-7,4.4-9.6c1.3-1.2,2.7-2.1,4.4-2.8C8.9,0.1,9.1,0.1,9.2,0c1.6,5.3,3.1,10.6,4.7,16c0,0,0,0,0.1,0c1.6-5.3,3.1-10.6,4.7-16c0.1,0,0.2,0.1,0.3,0.1c1.3,0.5,2.5,1.2,3.7,2.1c1.4,1.1,2.6,2.5,3.5,4.1c0.7,1.2,1.1,2.5,1.4,3.8c0.2,0.8,0.3,1.5,0.3,2.3c0,0.8,0,1.6,0,2.3c-0.1,1.1-0.4,2.2-0.8,3.3c-0.7,1.8-1.6,3.4-2.8,4.9c0,0.1-0.1,0.1-0.2,0.1c-1.3,0-2.5,0-3.8,0c-0.8,0-1.7,0-2.5,0c0,0,0,0,0,0c0,0,0,0,0.1-0.1c1.6-0.9,3-2,4.3-3.4c1-1,1.8-2.2,2.3-3.5c0.3-0.8,0.5-1.5,0.6-2.3c0.1-0.7,0.2-1.3,0.1-2c0-1.9-0.6-3.6-1.5-5.2c-0.5-0.8-1.1-1.5-1.8-2.2c-0.3-0.3-0.6-0.5-1-0.5c-0.4-0.1-0.8,0.1-1.1,0.4c-0.2,0.2-0.3,0.5-0.3,0.7C18.3,8.9,17,13,15.8,17.1c-0.6,1.9-1.2,3.7-1.7,5.6C14,22.7,14,22.8,14,22.8"/>
</svg>
