<svg xmlns="http://www.w3.org/2000/svg" viewBox="0 0 40 40">
	<g>
		<path d="M20,0c5.5,0,10.5,2.2,14.1,5.9C37.8,9.5,40,14.5,40,20c0,5.5-2.2,10.5-5.9,14.1C30.5,37.8,25.5,40,20,40c-5.5,0-10.5-2.2-14.1-5.9C2.2,30.5,0,25.5,0,20C0,14.5,2.2,9.5,5.9,5.9C9.5,2.2,14.5,0,20,0 M33,7c-3.3-3.3-7.9-5.4-13-5.4c-5.1,0-9.7,2.1-13,5.4c-3.3,3.3-5.4,7.9-5.4,13c0,5.1,2.1,9.7,5.4,13c3.3,3.3,7.9,5.4,13,5.4c5.1,0,9.7-2.1,13-5.4c3.3-3.3,5.4-8,5.4-13C38.4,14.9,36.4,10.3,33,7"/>
		<path d="M31.1,14.4c-0.3-0.2-1.4-0.2-2.4-0.2c-1.1,0-2.2,0-2.4,0.1c-0.2,0.1-0.8,1.4-1.4,2.6c-0.8,1.5-1.7,2.9-2.3,2.9c-0.8,0-0.6-2.4-0.5-4.2c0-1.2-0.2-1.5-0.3-1.6c-0.4-0.3-1.5-0.6-1.5-0.6s-3.4-0.3-3.9,1.2c0.7,0.1,1.8-0.1,1.3,4.4c0,0.2-0.5,2.1-2.1-0.4C15,18,13.5,14.2,13,14.2c-1.7,0-3.5-0.1-4.1,0.2c-0.6,0.3,0.8,2.9,3,6.4c1.8,2.9,3.7,5.1,7,5.6c0.6,0.1,2.2,0.1,2.8-0.1c0.3-0.2-0.1-2.6,1.1-2.9c0.5-0.1,2.5,2.6,3.3,2.9c0.5,0.2,1.5,0.3,2.5,0.2c1.1,0,2.4,0.1,2.5-0.7c0.3-1.7-3.4-3.9-3.5-5c-0.1-0.8,1.4-2.1,2.1-3.2C30.6,16.5,31.6,14.9,31.1,14.4"/>
	</g>
</svg>
