<svg xmlns="http://www.w3.org/2000/svg" viewBox="0 0 119 86.8">
	<path fill="#ffffff" d="M116.8,19c0,0-1.2-8.7-4.7-12.2c-4.7-4.7-9.3-5.2-11.6-5.2C83.6,0.4,59.2,0.4,59.2,0.4l0,0c0,0-25,0-41.3,1.2c-2.3,0.6-7.6,0.6-11.6,5.2C2.8,10.2,1.7,19,1.7,19s-1.2,9.9-1.2,19.8v1.2V48c0,9.9,1.2,19.8,1.2,19.8S2.8,76.5,6.3,80c4.7,5.2,10.5,4.7,13.4,5.2c9.3,1.2,40.1,1.2,40.1,1.2s25,0,41.3-1.2c2.3-0.6,7.6-0.6,11.6-5.2c3.5-4.1,4.7-12.2,4.7-12.2s1.2-9.9,1.2-19.8v-7.6v-1.7C117.9,29.4,116.8,19,116.8,19 M78.4,42.8l-32,17.4V33.5v-8.1L61,33.5L78.4,42.8z"/>
</svg>
