<svg xmlns="http://www.w3.org/2000/svg" viewBox="0 0 40 40">
	<g>
		<path d="M20,0c5.5,0,10.5,2.2,14.1,5.9C37.8,9.5,40,14.5,40,20c0,5.5-2.2,10.5-5.9,14.1C30.5,37.8,25.5,40,20,40c-5.5,0-10.5-2.2-14.1-5.9C2.2,30.5,0,25.5,0,20C0,14.5,2.2,9.5,5.9,5.9C9.5,2.2,14.5,0,20,0 M33,7c-3.3-3.3-7.9-5.4-13-5.4c-5.1,0-9.7,2.1-13,5.4c-3.3,3.3-5.4,8-5.4,13c0,5.1,2.1,9.7,5.4,13c3.3,3.3,7.9,5.4,13,5.4c5.1,0,9.7-2.1,13-5.4c3.3-3.3,5.4-8,5.4-13C38.4,14.9,36.4,10.3,33,7"/>
		<path d="M30,15.7c0,0-0.2-1.5-0.8-2.1c-0.8-0.8-1.6-0.9-2-0.9c-2.9-0.2-7.1-0.2-7.1-0.2h0c0,0-4.3,0-7.1,0.2c-0.4,0.1-1.3,0.1-2,0.9c-0.6,0.6-0.8,2.1-0.8,2.1s-0.2,1.7-0.2,3.4v0.2v1.4c0,1.7,0.2,3.4,0.2,3.4s0.2,1.5,0.8,2.1c0.8,0.9,1.8,0.8,2.3,0.9c1.6,0.2,6.9,0.2,6.9,0.2s4.3,0,7.1-0.2c0.4-0.1,1.3-0.1,2-0.9c0.6-0.7,0.8-2.1,0.8-2.1s0.2-1.7,0.2-3.4v-1.3v-0.3C30.2,17.5,30,15.7,30,15.7 M23.4,19.8l-5.5,3v-4.6v-1.4l2.5,1.4L23.4,19.8z"/>
	</g>
</svg>
