<svg xmlns="http://www.w3.org/2000/svg" viewBox="0 0 336 75.7"><path d="M18.3 0l-1 1.9-2 .3 1.5 1.4-.4 2.1 1.9-1 1.8 1-.4-2.1 1.5-1.4-2-.3zm-9 2.1l.9 1.9 2.1.3-1.5 1.4.3 2.1-1.8-1-1.8 1 .3-2.1-1.5-1.4L8.4 4zm17.4 0l.9 1.9 2.1.3-1.5 1.4.3 2.1-1.8-1-1.8 1 .3-2.1-1.5-1.4 2.1-.3zM33.5 9l1 1.8 2 .3-1.5 1.5.4 2-1.9-1-1.8 1 .4-2-1.5-1.5 2-.3zM2.1 10.8l-2.1.3 1.5 1.5-.4 2 1.9-1 1.8 1-.3-2 1.4-1.5-2-.3L3 9z" fill="#ead100"/><path d="M27.9 49.5H8.5V13.3h19.4v3.1h-16v13.2h15.2v3H11.9v13.8h16zm8.8.5V23.1H47c2 0 3.6.7 4.9 2.1 1.3 1.4 1.9 3.1 1.9 5.1 0 2.5-1.1 3.8-3.4 4.9v.7c3.2 1.2 4.9 2.9 4.9 6.1 0 2.4-.7 4.7-2.2 6-1.5 1.3-3.4 1.9-5.8 1.9H36.7zm3.6-24v8.1h5.6c1.5 0 2.7-.4 3.6-1.1.9-.8 1.4-1.3 1.4-2.7 0-1.3-.4-2.3-1.3-3.1-.8-.8-1.9-1.2-3.2-1.2h-6.1zm0 11.5v9.1h6.4c3.5 0 4.8-1.6 4.8-4.8 0-1.6 0-2.3-1.1-3.1-1-.8-2.4-1.2-4-1.2h-6.1zm26.2-14.4v5.1c2.9-3.8 6.5-5.8 10.8-5.8 3.8 0 7 1.4 9.6 4.1 2.5 2.7 3.8 6.1 3.8 9.9 0 4-1.3 7.4-4 10.1-2.7 2.7-6 4.1-10 4.1-4.1 0-7.5-1.8-10.2-5.3v13.2h-3.7V23.1h3.7zm20.9 13.3c0-3-1-5.5-3.1-7.7-2-2.1-4.6-3.2-7.5-3.2-3 0-5.5 1.1-7.5 3.4s-3 4.9-3 7.9c0 2.8 1 5.3 3.1 7.5s4.5 2.8 7.3 2.8c3 0 5.5-.6 7.6-2.8 2.1-2.3 3.1-4.9 3.1-7.9m10.7-.4c0-3.9 1.3-7.2 4-10 2.7-2.7 5.9-4.1 9.9-4.1 3.9 0 7.2 1.4 9.9 4.1 2.6 2.7 4 6.1 4 10 0 3.9-1.3 7.3-4 10-2.6 2.7-5.9 4.1-9.9 4.1-3.9 0-7.2-1.4-9.9-4.1-2.6-2.8-4-6.1-4-10m3.3 0c0 3.2 1 5.8 2.9 7.9 2 2.1 4.5 3.1 7.6 3.1 3.2 0 5.3-1 7.2-3 1.9-2 2.9-4.7 2.9-7.9 0-3.3-.9-5.5-2.8-7.5s-4-3-7.3-3c-3.2 0-5.8 1-7.7 3-1.9 2-2.8 4.2-2.8 7.4m53.3 13.5h-3.2l-13.4-32h-.3l.2 2.2v29.8h-3.5V13.3h5.4L153 44.4h.2l13-31.1h5.4v36.2h-3.4V19.7l.2-2.2h-.3zM208 37.4h-24.2c0 3.1 1 5.1 2.9 6.9 1.9 1.8 4.4 2.7 7.6 2.7 4.4 0 7.5-2.7 9.2-5.9h3.7c-2.8 5.3-7.1 9-12.8 9-4.2 0-7.6-1.3-10.1-3.9-2.6-2.6-3.8-5.5-3.8-9.7 0-4.1 1.3-7.5 4-10.1 2.7-2.6 6-3.9 10.2-3.9 4.2 0 7.5 1.5 10 4.4 2.2 2.7 3.3 6.2 3.3 10.5m-3.8-3.2c-1.3-6.1-4.3-8.6-10.1-8.6-2.8 0-5 .8-6.8 2.5-1.8 1.7-2.9 3.4-3.3 6.1h20.2zm39.3 21.9h-3.9v-6.6h-22.4v6.6h-3.9v-9.5h3.1l10.1-23.4h3.8L241 46.6h2.6v9.5zm-6.4-9.6L228.4 28h-.2l-8.7 18.5h17.6zm16.6-1.9l15.1-21.5h4.3V50h-3.8V28.5L254.2 50h-4.3V23.1h3.8zm31.8 4.9h-3.6V23.1h3.6v26.4zm13.1 0l-11-13 10.3-13.3h3.9l-9.3 13.2 10.2 13.1h-4.1zm34.2-26.9h3.2v26.9h-3.2V45c-2.6 3.5-6.1 5.2-10.5 5.2-3.9 0-7.2-1.3-9.8-4-2.6-2.7-4.4-6-4.4-10s1.9-7.4 4.5-10.1c2.7-2.7 6-4.1 10-4.1 4.4 0 7.8 1.9 10.2 5.8v-5.2zm0 13.3c0-2.9-1-5.4-3-7.6-2-2.2-4.4-2.8-7.3-2.8-3 0-5.5.6-7.5 2.8-2 2.2-3 4.9-3 8 0 2.9 1 5.5 3 7.6 2 2.2 4.5 3.2 7.4 3.2 2.1 0 4-.6 5.7-1.9 1.7-1.3 3-2.9 3.9-4.8.5-1.3.8-2.8.8-4.5M38.6 72.5V61.6h2.2l2.6 7.7c.2.7.4 1.3.5 1.6.1-.4.3-1 .6-1.7l2.6-7.5H49v10.8h-1.4v-9.1l-3.2 9.1h-1.3L40 63.2v9.2h-1.4zm18.5-2.6l1.4.2c-.2.8-.6 1.4-1.2 1.9-.6.4-1.3.7-2.2.7-1.1 0-2.1-.4-2.7-1.1-.7-.7-1-1.7-1-3s.3-2.3 1-3.1 1.6-1.1 2.6-1.1c1.1 0 1.9.4 2.6 1.1.7.7 1 1.7 1 3v.4h-5.9c0 .9.3 1.5.7 2 .4.5 1 .7 1.6.7.5 0 .9-.1 1.3-.4.3-.3.6-.7.8-1.3m-4.4-2.1h4.4c-.1-.7-.2-1.2-.5-1.5-.4-.5-1-.8-1.7-.8-.6 0-1.1.2-1.5.6-.4.5-.6 1-.7 1.7m9.3-3.2h5.5v6.8h.9v3.3h-1.1v-2.2H61v2.2h-1.1v-3.3h.7c1-1.3 1.4-3.6 1.4-6.8m1.1 1.1c-.1 2.6-.5 4.4-1.2 5.7h4.2v-5.7h-3zm7.3-1.1h1.3v6l3.7-6h1.5v7.9h-1.4v-6l-3.7 6h-1.4zm9.1 0h1.4v6.8h3.7v-6.8h1.3v6.8h.9v3.3h-1.1v-2.2h-6.2zm9.4 0h1.3v6l3.7-6h1.4v7.9H94v-6l-3.7 6h-1.4zm9.1 0h1.3v3.3h3.7v-3.3h1.3v7.9H103V69h-3.7v3.5H98zm14.2 6.9c-.5.4-1 .7-1.4.9-.5.2-.9.3-1.5.3-.9 0-1.5-.2-2-.6-.5-.4-.7-1-.7-1.6 0-.4.1-.7.3-1.1.2-.3.4-.6.7-.8.3-.2.6-.3 1-.4.3-.1.7-.1 1.2-.2 1.1-.1 1.9-.3 2.4-.5v-.3c0-.5-.1-.9-.4-1.1-.3-.3-.8-.5-1.5-.5-.6 0-1.1.1-1.4.3-.3.2-.5.6-.7 1.2l-1.3-.2c.1-.6.3-1 .6-1.4.3-.3.7-.6 1.2-.8s1.1-.3 1.8-.3 1.2.1 1.6.2c.4.2.7.4.9.6.2.2.3.5.4.9 0 .2.1.6.1 1.2v1.8c0 1.2 0 2 .1 2.3l.3.9h-1.4c-.2-.1-.3-.4-.3-.8m-.1-3c-.5.2-1.2.4-2.2.5-.5.1-.9.2-1.2.3-.2.1-.4.2-.5.4-.1.2-.2.4-.2.6 0 .4.1.7.4.9.3.2.7.4 1.2.4s1-.1 1.4-.3c.4-.2.7-.5.9-.9.1-.3.2-.7.2-1.3v-.6zm14.3 1.4l1.4.2c-.2.8-.6 1.4-1.2 1.9-.6.4-1.3.7-2.2.7-1.1 0-2.1-.4-2.7-1.1-.7-.7-1-1.7-1-3s.3-2.3 1-3.1c.7-.7 1.6-1.1 2.6-1.1 1.1 0 1.9.4 2.6 1.1.7.7 1 1.7 1 3v.4H122c0 .9.3 1.5.7 2 .4.5 1 .7 1.6.7.5 0 .9-.1 1.3-.4.3-.3.6-.7.8-1.3m-4.4-2.1h4.4c-.1-.7-.2-1.2-.5-1.5-.4-.5-1-.8-1.7-.8-.6 0-1.1.2-1.5.6-.4.5-.6 1-.7 1.7m8.1-3.2h3.1c.8 0 1.3.1 1.7.2.4.1.7.4.9.7s.4.7.4 1.2c0 .4-.1.7-.2 1-.2.3-.4.5-.7.7.4.1.7.4.9.7.2.3.4.7.4 1.2 0 .7-.3 1.3-.8 1.7-.5.4-1.2.5-2.1.5h-3.5v-7.9zm1.3 3.3h1.4c.6 0 1 0 1.2-.1.2-.1.4-.2.6-.4.2-.2.3-.4.3-.6 0-.4-.1-.7-.4-.9-.3-.2-.8-.2-1.5-.2h-1.5v2.2zm0 3.5h1.8c.8 0 1.3-.1 1.6-.3.3-.2.4-.5.4-.9 0-.3-.1-.5-.2-.7-.2-.2-.4-.3-.6-.4s-.7-.1-1.3-.1h-1.6v2.4zm7.4 4.1V64.6h1.2v1c.3-.4.6-.7 1-.9.4-.2.8-.3 1.3-.3.7 0 1.3.2 1.8.5s.9.8 1.2 1.5c.3.6.4 1.3.4 2.1s-.1 1.5-.4 2.2c-.3.6-.7 1.1-1.3 1.5-.6.3-1.1.5-1.7.5-.4 0-.8-.1-1.2-.3-.4-.2-.6-.4-.9-.7v3.8h-1.4zm1.2-6.9c0 1 .2 1.8.6 2.2.4.5.9.7 1.5.7s1.1-.3 1.5-.8c.4-.5.6-1.3.6-2.3 0-1-.2-1.8-.6-2.2-.4-.5-.9-.7-1.5-.7s-1.1.3-1.5.8c-.3.5-.6 1.3-.6 2.3m7.5-.1c0-1.5.4-2.5 1.2-3.2.7-.6 1.5-.9 2.5-.9 1.1 0 2 .4 2.6 1.1.7.7 1 1.7 1 2.9 0 1-.2 1.8-.5 2.4-.3.6-.7 1-1.3 1.4-.6.3-1.2.5-1.9.5-1.1 0-2-.4-2.7-1.1-.6-.7-.9-1.7-.9-3.1m1.4 0c0 1 .2 1.8.7 2.3.4.5 1 .8 1.7.8s1.2-.3 1.7-.8c.4-.5.7-1.3.7-2.3 0-1-.2-1.7-.7-2.2-.4-.5-1-.8-1.6-.8-.7 0-1.2.2-1.7.7-.6.6-.8 1.3-.8 2.3m8.3-3.9h6.2v7.9H162v-6.8h-3.5v6.8h-1.3zm14.2 5.3l1.4.2c-.2.8-.6 1.4-1.2 1.9-.6.4-1.3.7-2.2.7-1.1 0-2.1-.4-2.7-1.1-.7-.7-1-1.7-1-3s.3-2.3 1-3.1 1.6-1.1 2.6-1.1c1.1 0 1.9.4 2.6 1.1.7.7 1 1.7 1 3v.4H167c0 .9.3 1.5.7 2 .4.5 1 .7 1.6.7.5 0 .9-.1 1.3-.4.4-.3.6-.7.8-1.3m-4.3-2.1h4.4c-.1-.7-.2-1.2-.5-1.5-.4-.5-1-.8-1.7-.8-.6 0-1.1.2-1.5.6-.5.5-.7 1-.7 1.7m8-3.2h1.3v6l3.7-6h1.4v7.9h-1.3v-6l-3.7 6h-1.4v-7.9zm4.7-3h.9c-.1.6-.3 1.1-.7 1.4-.4.3-.9.5-1.5.5s-1.1-.2-1.5-.5c-.4-.3-.6-.8-.7-1.4h.9c.1.3.2.6.4.8.2.2.5.2.8.2.4 0 .7-.1.9-.2.3-.2.4-.4.5-.8m9.6 8l1.3.2c-.1.9-.5 1.6-1.1 2.1-.6.5-1.3.8-2.2.8-1.1 0-1.9-.4-2.6-1.1-.7-.7-1-1.7-1-3 0-.8.1-1.6.4-2.2.3-.6.7-1.1 1.3-1.4.6-.3 1.2-.5 1.9-.5.9 0 1.6.2 2.1.6.5.4.9 1 1 1.8l-1.3.2c-.1-.5-.3-.9-.7-1.2-.3-.3-.7-.4-1.1-.4-.7 0-1.2.2-1.6.7-.4.5-.6 1.2-.6 2.3 0 1.1.2 1.8.6 2.3.4.5.9.7 1.6.7.5 0 1-.2 1.3-.5.4-.2.6-.7.7-1.4m3.3-5h1.3V68c.4 0 .7-.1.9-.2.2-.2.4-.6.8-1.4l.6-1.2c.2-.2.4-.3.6-.4.2-.1.6-.1 1-.1h.3v1.1h-.4c-.4 0-.6.1-.7.2-.1.1-.3.4-.5 1-.2.5-.4.9-.6 1.1-.2.2-.4.4-.8.5.6.2 1.1.7 1.7 1.6l1.5 2.4H197l-1.4-2.4c-.3-.5-.5-.8-.8-1-.2-.2-.5-.2-.8-.2v3.6h-1.3v-8zm6.8 3.9c0-1.5.4-2.5 1.2-3.2.7-.6 1.5-.9 2.5-.9 1.1 0 2 .4 2.6 1.1.7.7 1 1.7 1 2.9 0 1-.2 1.8-.5 2.4-.3.6-.7 1-1.3 1.4-.6.3-1.2.5-1.9.5-1.1 0-2-.4-2.7-1.1-.6-.7-.9-1.7-.9-3.1m1.3 0c0 1 .2 1.8.7 2.3.4.5 1 .8 1.7.8s1.2-.3 1.6-.8.7-1.3.7-2.3c0-1-.2-1.7-.7-2.2-.4-.5-1-.8-1.6-.8-.7 0-1.2.2-1.7.7-.5.6-.7 1.3-.7 2.3m8.3-3.9h4.5v1.1h-3.2v6.8h-1.3zm5.7 3.9c0-1.5.4-2.5 1.2-3.2.7-.6 1.5-.9 2.5-.9 1.1 0 2 .4 2.6 1.1.7.7 1 1.7 1 2.9 0 1-.2 1.8-.5 2.4-.3.6-.7 1-1.3 1.4-.6.3-1.2.5-1.9.5-1.1 0-2-.4-2.7-1.1-.5-.7-.9-1.7-.9-3.1m1.4 0c0 1 .2 1.8.7 2.3.4.5 1 .8 1.7.8s1.2-.3 1.6-.8.7-1.3.7-2.3c0-1-.2-1.7-.7-2.2-.4-.5-1-.8-1.6-.8-.7 0-1.2.2-1.7.7-.5.6-.7 1.3-.7 2.3m13 7l-.1-1.3c.3.1.5.1.8.1.3 0 .5 0 .7-.1.2-.1.3-.2.4-.4.1-.1.2-.5.4-1 0-.1.1-.2.1-.3l-3-7.9h1.4l1.6 4.6.6 1.8c.2-.6.3-1.2.5-1.8l1.7-4.6h1.3l-3 8c-.3.9-.6 1.5-.7 1.8-.2.4-.5.8-.8 1-.3.2-.7.3-1.1.3-.2 0-.4-.1-.8-.2m8.4 0V64.6h1.2v1c.3-.4.6-.7 1-.9.4-.2.8-.3 1.3-.3.7 0 1.3.2 1.8.5s.9.8 1.2 1.5c.3.6.4 1.3.4 2.1s-.1 1.5-.4 2.2c-.3.6-.7 1.1-1.3 1.5-.6.3-1.1.5-1.7.5-.4 0-.8-.1-1.2-.3-.4-.2-.6-.4-.9-.7v3.8h-1.4zm1.2-6.9c0 1 .2 1.8.6 2.2.4.5.9.7 1.5.7s1.1-.3 1.5-.8c.4-.5.6-1.3.6-2.3 0-1-.2-1.8-.6-2.2-.4-.5-.9-.7-1.5-.7s-1.1.3-1.5.8c-.4.5-.6 1.3-.6 2.3m7.5-.1c0-1.5.4-2.5 1.2-3.2.7-.6 1.5-.9 2.5-.9 1.1 0 2 .4 2.6 1.1.7.7 1 1.7 1 2.9 0 1-.2 1.8-.5 2.4-.3.6-.7 1-1.3 1.4-.6.3-1.2.5-1.9.5-1.1 0-2-.4-2.7-1.1-.6-.7-.9-1.7-.9-3.1m1.4 0c0 1 .2 1.8.7 2.3.4.5 1 .8 1.7.8s1.2-.3 1.6-.8.7-1.3.7-2.3c0-1-.2-1.7-.7-2.2-.4-.5-1-.8-1.6-.8-.7 0-1.2.2-1.7.7-.5.6-.7 1.3-.7 2.3m8.2-3.9h3.1c.8 0 1.3.1 1.7.2s.7.4.9.7c.3.3.4.7.4 1.2 0 .4-.1.7-.2 1-.2.3-.4.5-.7.7.4.1.7.4.9.7.2.3.4.7.4 1.2 0 .7-.3 1.3-.8 1.7-.5.4-1.2.5-2.1.5H256v-7.9zm1.4 3.3h1.4c.6 0 1 0 1.2-.1.2-.1.4-.2.6-.4.2-.2.3-.4.3-.6 0-.4-.1-.7-.4-.9-.3-.2-.8-.2-1.5-.2h-1.5v2.2zm0 3.5h1.8c.8 0 1.3-.1 1.6-.3.3-.2.4-.5.4-.9 0-.3-.1-.5-.2-.7-.2-.2-.4-.3-.6-.4-.3-.1-.7-.1-1.3-.1h-1.6v2.4zm7.3-6.8h1.4v3.3h3.7v-3.3h1.3v7.9h-1.3V69H266v3.5h-1.4zm15.3 0v7.9h-1.3v-3.1h-.8c-.5 0-.8.1-1 .2-.2.1-.6.5-1 1.2l-1.2 1.7h-1.7l1.4-2.1c.4-.6.9-1 1.3-1.1-.8-.1-1.3-.4-1.7-.8-.4-.4-.6-1-.6-1.5 0-.7.2-1.2.7-1.7.5-.4 1.2-.6 2.1-.6h3.8zm-1.4 1.1h-1.9c-.8 0-1.3.1-1.5.4-.2.2-.3.5-.3.9 0 .5.2.8.5 1 .3.2.9.3 1.8.3h1.5v-2.6zM42.2 5.6h1.3V9c.4 0 .7-.1.9-.2.2-.2.4-.6.8-1.4l.6-1.2c.2-.2.4-.3.6-.4.2-.1.6-.1 1-.1h.3v1.1h-.4c-.4 0-.6.1-.7.2-.1.1-.3.4-.5 1-.2.5-.4.9-.6 1.1-.2.2-.4.4-.8.5.6.2 1.1.7 1.7 1.6l1.5 2.4h-1.5L45 11c-.3-.5-.5-.8-.8-1-.2-.2-.5-.2-.8-.2v3.6h-1.3V5.6zm10.8 0h6.2v7.9h-1.3V6.7h-3.5v3.9c0 .9 0 1.5-.1 1.8-.1.3-.2.5-.5.8-.3.2-.7.3-1.2.3-.3 0-.7 0-1.1-.1v-1.1h.6c.3 0 .5 0 .6-.1.1-.1.2-.1.2-.3 0-.1.1-.5.1-1.2V5.6zm11.1 0h1.3v6l3.7-6h1.4v7.8h-1.3V7.5l-3.7 5.9h-1.4zm11.3 0h1.3v3.3h3.7V5.6h1.4v7.8h-1.4V10h-3.7v3.4h-1.3zm11.3 0H88v6l3.7-6h1.4v7.8h-1.3V7.5l-3.7 5.9h-1.4zm11.3 0h1.3V9c.4 0 .7-.1.9-.2.2-.2.4-.6.8-1.4l.6-1.2c.2-.2.4-.3.6-.4.2-.1.6-.1 1-.1h.3v1.1h-.4c-.4 0-.6.1-.7.2-.1.1-.3.4-.5 1-.2.5-.4.9-.6 1.1-.2.2-.4.4-.8.5.6.2 1.1.7 1.7 1.6l1.5 2.4h-1.5l-1.4-2.4c-.3-.5-.5-.8-.8-1-.2-.2-.5-.2-.8-.2v3.6H98v-8zm14.7 6.9c-.5.4-1 .7-1.4.9-.5.2-.9.3-1.5.3-.9 0-1.5-.2-2-.6-.5-.4-.7-1-.7-1.6 0-.4.1-.7.3-1.1.2-.3.4-.6.7-.8.3-.2.6-.3 1-.4.3-.1.7-.1 1.2-.2 1.1-.1 1.9-.3 2.4-.5v-.3c0-.5-.1-.9-.4-1.1-.3-.3-.8-.5-1.5-.5-.6 0-1.1.1-1.4.3-.3.2-.5.6-.7 1.2l-1.3-.2c.1-.6.3-1 .6-1.4.3-.3.7-.6 1.2-.8.5-.2 1.1-.3 1.8-.3s1.2.1 1.6.2c.4.2.7.4.9.6.2.2.3.5.4.9 0 .2.1.6.1 1.2v1.8c0 1.2 0 2 .1 2.3l.3.9H113c-.1-.1-.2-.5-.3-.8m-.1-3c-.5.2-1.2.4-2.2.5-.5.1-.9.2-1.2.3-.2.1-.4.2-.5.4-.1.2-.2.4-.2.6 0 .4.1.7.4.9.3.2.7.4 1.2.4s1-.1 1.4-.3c.4-.2.7-.5.9-.9.1-.3.2-.7.2-1.3v-.6z" fill="#0b94e6"/></svg>